<svg xmlns="http://www.w3.org/2000/svg" xmlns:xlink="http://www.w3.org/1999/xlink" width="387" height="364" viewBox="0 0 387 364">
    <defs>
        <path id="a" d="M0 0h399v363.747H0z"/>
        <path id="c" d="M.628.537h266.93v185.974H.628z"/>
        <path id="e" d="M.815.002h221.363v208.63H.815z"/>
        <path id="g" d="M0 392.93h385.84V.715H0z"/>
    </defs>
    <g fill="none" fill-rule="evenodd" transform="translate(-11)">
        <mask id="b" fill="#fff">
            <use xlink:href="#a"/>
        </mask>
        <g mask="url(#b)">
            <g transform="translate(11.217)">
                <g transform="translate(71.665 206.42)">
                    <mask id="d" fill="#fff">
                        <use xlink:href="#c"/>
                    </mask>
                    <path fill="#303030" d="M242.024.537s-27.195 69.631-107.93 111.638C53.357 70.168 26.162.537 26.162.537S-.685 134.523.679 143.562c3.686 24.432 56.37 42.95 133.414 42.95 77.041 0 129.729-18.518 133.415-42.95C268.872 134.522 242.024.537 242.024.537" mask="url(#d)"/>
                </g>
                <path fill="#303030" d="M332.385 318.548c.193-18.399-1.42-36.104-3.749-51.793-5.218-35.195-14.023-60.243-14.023-60.243 16.63-7.242 7.071-36.226-4.68-33.89-1.683.319-30.33 34.26-104.176 34.395-73.845-.135-102.492-34.076-104.175-34.396-11.75-2.335-21.31 26.65-4.68 33.891 0 0-8.805 25.048-14.024 60.243-2.327 15.69-3.94 33.394-3.747 51.793 0 0-8.523 3.887-6.779 15.439 3.685 24.433 56.376 42.954 133.405 42.954 77.03 0 129.722-18.521 133.406-42.954 1.742-11.552-6.778-15.439-6.778-15.439"/>
                <path fill="#303030" d="M76.193 156.635s-3.548 62.442 21.05 49.93L125.8 338.702c-73.425 0-143.188-37.434-121.921-177.293l72.314-4.775z"/>
                <path fill="#9D7354" d="M5.23 165.213c9.623 25.959 30.113 25.838 43.94 21.977 14.233-3.974 31.09-15.619 26.14-41.547-2.667-13.978-7.008-28.76-19.604-31.036-5.284-.956-9.485 2.65-9.485 2.65s-7.992-4.754-17.255-2.168c-9.802 2.737-12.281 10.414-12.281 10.414s-6.582-1.534-10.452 2.13c-9.791 9.27-6.117 23.784-1.003 37.58"/>
                <path fill="#493426" d="M25.225 132.981c1.418 5.053 6.2 8.133 10.684 6.88 4.482-1.251 6.969-6.362 5.553-11.413-1.414-5.053-6.198-8.133-10.68-6.881-4.485 1.252-6.972 6.361-5.557 11.414M20.098 136.914c2.315 3.722 1.513 8.4-1.787 10.447-3.305 2.048-7.858.69-10.174-3.032-2.314-3.721-1.515-8.398 1.788-10.446 3.304-2.046 7.859-.69 10.173 3.031M17.248 163.157c1.784 6.365 13.69 8.605 26.59 5.004 12.902-3.604 21.913-11.686 20.13-18.051-1.784-6.365-13.688-8.605-26.59-5-12.9 3.6-21.914 11.682-20.13 18.047M47.89 129.153c-.044 4.38 3.072 7.964 6.96 8.005 3.887.038 7.075-3.482 7.12-7.862.046-4.38-3.071-7.963-6.96-8.003-3.886-.04-7.076 3.481-7.12 7.86"/>
                <g transform="translate(94.262 .712)">
                    <mask id="f" fill="#fff">
                        <use xlink:href="#e"/>
                    </mask>
                    <path fill="#9D7354" d="M214.261 14.144c-25.752-28.355-45.261-6.656-59.7 4.293-4.612 3.356-9.076 3.403-15.03 3.057-1.28-2.95-1.161-7.543.512-10.517-10.593-1.849-23.084 5.36-23.084 5.36-1.283-4.322.192-10.401 1.967-16.336C92.78 1.964 86.57 18.437 72.278 18.437h-3.844C53.994 7.488 34.478-14.21 8.727 14.144-2.726 26.756-4.553 46.73 22.471 61.407c-9.41 34.916-15.168 110.55-15.168 110.55s23.463 36.676 104.192 36.676c80.729 0 104.193-36.676 104.193-36.676s-5.753-75.634-15.164-110.55c27.018-14.677 25.198-34.65 13.737-47.263" mask="url(#f)"/>
                </g>
                <path fill="#493426" d="M137.681 31.76c1.763-1.726 1.042-4.689-1.308-5.448-3.43-1.108-8.132-1.647-11.932 1.532-6.557 5.483-4.606 10.846-2.384 13.97 1.157 1.628 3.515 1.811 4.94.413l10.684-10.466zM273.836 31.76c-1.764-1.726-1.042-4.689 1.308-5.448 3.43-1.108 8.131-1.647 11.93 1.532 6.559 5.483 4.606 10.846 2.386 13.97-1.158 1.628-3.515 1.811-4.942.413l-10.682-10.466z"/>
                <path fill="#EBBF8D" d="M236.566 168.513c0 24.356-13.793 28.052-30.809 28.052-17.012 0-30.805-3.928-30.805-28.052 0-26.768 13.793-46.528 30.805-46.528 17.016 0 30.809 19.76 30.809 46.528"/>
                <path fill="#493426" d="M185.726 60.614a4.783 4.783 0 0 1-6.384 2.22l-1.012-.489c-7.093-3.423-13.074-3.562-20.643-.477l-1.039.423a4.785 4.785 0 0 1-6.235-2.616l-.846-2.073a4.769 4.769 0 0 1 2.617-6.222l1.04-.424c10.59-4.315 20.201-4.07 30.247.78l1.01.487a4.77 4.77 0 0 1 2.223 6.375l-.978 2.016zM225.712 60.426l-.943-2.035a4.768 4.768 0 0 1 2.332-6.335l1.02-.47c10.126-4.676 19.74-4.759 30.254-.262l1.032.442a4.768 4.768 0 0 1 2.512 6.265l-.884 2.06a4.783 4.783 0 0 1-6.277 2.507l-1.032-.44c-7.515-3.214-13.496-3.176-20.648.124l-1.019.47a4.785 4.785 0 0 1-6.347-2.326"/>
                <path fill="#303030" d="M249.294 121.984c-15.946 0-27.082-9.766-27.082-23.75 0-7.653.08-11.388 1.89-12.677 3.326-2.366 14.747-2.564 25.192-2.564 10.444 0 21.865.198 25.19 2.564 1.81 1.289 1.89 5.024 1.89 12.676 0 15.17-1.257 23.75-27.08 23.75m-87.072 0c-25.82 0-27.08-8.58-27.08-23.75 0-7.652.08-11.387 1.89-12.676 3.325-2.366 14.746-2.564 25.19-2.564 10.447 0 21.867.198 25.19 2.564 1.81 1.289 1.89 5.024 1.89 12.676 0 13.985-11.134 23.75-27.08 23.75m141.182-42.077h-20.282a13.105 13.105 0 0 0-2.74-2.604c-5.314-3.782-14.26-4.448-31.088-4.448-16.83 0-25.774.666-31.088 4.448-2.823 2.011-4.343 4.57-5.17 7.675H198.48c-.827-3.105-2.345-5.664-5.17-7.675-5.314-3.782-14.258-4.448-31.088-4.448-16.829 0-25.772.666-31.086 4.448-1.103.785-2 1.657-2.742 2.604h-20.282a3.448 3.448 0 0 0-3.45 3.447V86.6a3.448 3.448 0 0 0 3.45 3.444h16.873v8.188c0 10.243 1.113 18.317 6.538 24.423 5.74 6.459 15.494 9.467 30.7 9.467 21.577 0 37.238-14.252 37.238-33.89v-3.118h12.596v3.118c0 19.638 15.66 33.89 37.237 33.89 15.205 0 24.959-3.008 30.697-9.467 5.427-6.106 6.538-14.18 6.538-24.423v-8.188h16.875a3.448 3.448 0 0 0 3.45-3.444v-3.248a3.448 3.448 0 0 0-3.45-3.447"/>
                <path fill="#493426" d="M158.475 108.383a3.81 3.81 0 0 1-1.547-.328 3.809 3.809 0 0 1-1.94-5.03c2.048-4.613 7.06-7.59 12.772-7.59 4.227 0 8.285 1.725 10.852 4.617a3.81 3.81 0 0 1-.325 5.383 3.828 3.828 0 0 1-5.395-.324c-1.138-1.285-3.056-2.052-5.132-2.052-2.61 0-4.99 1.257-5.792 3.055a3.818 3.818 0 0 1-3.493 2.269M253.042 108.383a3.823 3.823 0 0 1-3.495-2.267c-.8-1.8-3.181-3.057-5.794-3.057-2.041 0-4.007.787-5.13 2.05a3.824 3.824 0 0 1-5.393.326 3.808 3.808 0 0 1-.327-5.382c2.567-2.893 6.624-4.619 10.85-4.619 5.712 0 10.726 2.978 12.776 7.588a3.812 3.812 0 0 1-3.487 5.36"/>
                <path fill="#303030" d="M376.708 324.07c-20.675 33.967-114.029 15.788-114.029 15.788l52.2-133.179s101.308 52.529 61.83 117.391"/>
                <path fill="#493426" d="M225.22 143.778c0 2.63-4.612 6.748-9.347 10.282-5.999 4.48-14.232 4.48-20.23 0-4.736-3.534-9.348-7.652-9.348-10.282 0-5.404 8.714-9.782 19.462-9.782 10.75 0 19.463 4.378 19.463 9.782"/>
                <path fill="#EBBF8D" d="M216.3 142.068c0 .531-1.088 1.135-2.566 1.71a22.1 22.1 0 0 1-15.952 0c-1.478-.575-2.567-1.179-2.567-1.71 0-1.651 4.72-2.99 10.542-2.99s10.544 1.339 10.544 2.99"/>
                <path fill="#493426" d="M205.76 183.224c-16.056 0-18.826-13.577-18.826-13.577a3.03 3.03 0 0 1 3.031-3.026h31.585a3.03 3.03 0 0 1 3.032 3.026s-2.973 13.577-18.823 13.577"/>
                <path fill="#9D7354" d="M338.462 342.842c26.063-9.445 26.069-29.9 22.285-43.726-3.892-14.23-15.453-31.13-41.459-26.349-14.018 2.578-28.851 6.82-31.213 19.377-.988 5.271 2.598 9.487 2.598 9.487s-4.811 7.948-2.276 17.211c2.681 9.8 10.357 12.323 10.357 12.323s-1.577 6.56 2.069 10.447c9.224 9.828 23.787 6.25 37.639 1.23"/>
                <path fill="#9D7354" d="M344.057 275.92c-8.577-12.033-11.725-30.963-23.087-25.316-15.634 7.767.6 28.94.6 28.94s25.519.63 22.487-3.625"/>
                <path fill="#9D7354" d="M290.673 301.63s-15.735 6.8-18.39-7.871c-3.307-18.275 31.08-14.911 44.83-21.62 6.175 8.547-26.44 29.492-26.44 29.492"/>
                <path fill="#5DDA5B" d="M205.758 239.731c-28.988 0-104.567-64.724-107.769-67.478a2.681 2.681 0 0 1-.283-3.79 2.69 2.69 0 0 1 3.796-.283c.77.662 77.255 66.176 104.256 66.176a2.69 2.69 0 0 1 2.693 2.687 2.69 2.69 0 0 1-2.693 2.688"/>
                <path fill="#5DDA5B" d="M205.758 239.731a2.69 2.69 0 0 1-2.694-2.688 2.69 2.69 0 0 1 2.694-2.687c27.004 0 102.988-65.51 103.752-66.17a2.694 2.694 0 0 1 3.8.27 2.685 2.685 0 0 1-.273 3.792c-3.182 2.756-78.284 67.483-107.28 67.483"/>
                <mask id="h" fill="#fff">
                    <use xlink:href="#g"/>
                </mask>
                <path fill="#F6F6F6" d="M170.157 346.586h71.203v-99.11h-71.203z" mask="url(#h)"/>
                <path fill="#9D7354" d="M222.577 264.432c-4.215-4.641-7.406-1.09-9.771.702-.754.548-1.485.556-2.46.5-.208-.482-.19-1.236.085-1.722-1.734-.302-3.777.877-3.777.877-.21-.707.032-1.702.321-2.673-4.28.321-5.295 3.018-7.635 3.018h-.63c-2.361-1.791-5.554-5.343-9.77-.702-1.875 2.065-2.172 5.333 2.25 7.734-1.54 5.715-2.483 18.091-2.483 18.091s3.84 6.002 17.053 6.002c13.21 0 17.051-6.002 17.051-6.002s-.943-12.376-2.483-18.091c4.422-2.401 4.124-5.67 2.25-7.734" mask="url(#h)"/>
                <path fill="#493426" d="M194.618 267.198a.535.535 0 0 0-.214-.892c-.562-.182-1.332-.269-1.953.25-1.074.898-.754 1.776-.392 2.287a.536.536 0 0 0 .81.067l1.749-1.712zM216.901 267.198a.535.535 0 0 1 .214-.892c.56-.182 1.33-.269 1.952.25 1.073.898.753 1.776.39 2.287a.535.535 0 0 1-.809.067l-1.747-1.712z" mask="url(#h)"/>
                <path fill="#EBBF8D" d="M210.8 289.578c0 3.986-2.256 4.59-5.04 4.59-2.785 0-5.042-.641-5.042-4.59 0-4.38 2.257-7.615 5.042-7.615 2.784 0 5.04 3.235 5.04 7.615" mask="url(#h)"/>
                <path fill="#493426" d="M202.48 271.919a.783.783 0 0 1-1.044.365l-.166-.081c-1.16-.56-2.14-.583-3.379-.08l-.17.071a.784.784 0 0 1-1.02-.428l-.14-.34a.783.783 0 0 1 .43-1.018l.17-.069c1.734-.705 3.307-.667 4.95.128l.165.08a.78.78 0 0 1 .365 1.043l-.161.329zM209.024 271.89l-.155-.333a.78.78 0 0 1 .384-1.037l.165-.077c1.658-.765 3.232-.78 4.952-.044l.168.072a.78.78 0 0 1 .413 1.027l-.145.336a.784.784 0 0 1-1.029.41l-.168-.072c-1.23-.526-2.208-.521-3.378.022l-.169.077a.786.786 0 0 1-1.038-.381" mask="url(#h)"/>
                <path fill="#303030" d="M187.794 296.061l.105-.233c-2.726-1.181-1.12-5.948.804-5.569 0 0 6.994 5.697 17.053 5.697 10.037 0 17.053-5.697 17.053-5.697 1.923-.38 3.528 4.388.801 5.569l.108.233c1.458 3.269 2.895 6.94 3.76 10.272h-43.424c.845-3.332 2.303-7.003 3.74-10.272" mask="url(#h)"/>
                <path fill="#493426" d="M208.945 285.53c0 .43-.756 1.104-1.53 1.682a2.769 2.769 0 0 1-3.311 0c-.776-.578-1.53-1.252-1.53-1.682 0-.884 1.426-1.601 3.185-1.601 1.759 0 3.186.717 3.186 1.601" mask="url(#h)"/>
                <path fill="#EBBF8D" d="M207.484 285.25c0 .087-.177.184-.42.28a3.625 3.625 0 0 1-2.61 0c-.24-.096-.421-.193-.421-.28 0-.27.773-.49 1.727-.49.951 0 1.724.22 1.724.49" mask="url(#h)"/>
                <path fill="#303030" d="M212.877 281.97c-2.599 0-4.417-1.604-4.417-3.902 0-1.245 0-1.857.296-2.069.55-.378 2.41-.421 4.121-.421 1.712 0 3.592.043 4.12.421.297.212.319.824.319 2.069 0 2.488-.212 3.901-4.439 3.901m-14.242 0c-4.227 0-4.439-1.413-4.439-3.901 0-1.245.022-1.857.318-2.069.55-.378 2.407-.421 4.121-.421 1.712 0 3.57.043 4.119.421.296.212.318.824.318 2.069 0 2.298-1.838 3.901-4.437 3.901m23.096-6.895h-3.318a1.653 1.653 0 0 0-.444-.422c-.865-.613-2.323-.718-5.092-.718-2.747 0-4.205.105-5.072.718a2.07 2.07 0 0 0-.845 1.263h-2.388c-.147-.525-.379-.927-.845-1.263-.865-.613-2.345-.718-5.092-.718-2.749 0-4.227.105-5.092.718a2.73 2.73 0 0 0-.444.422h-3.32a.568.568 0 0 0-.57.568v.527c0 .316.256.57.57.57h2.77v1.329c0 1.689.168 3.016 1.056 4.007.951 1.054 2.537 1.54 5.03 1.54 3.528 0 6.085-2.32 6.085-5.547v-.506h2.072v.506c0 3.228 2.555 5.546 6.085 5.546 2.493 0 4.1-.485 5.028-1.539.889-.991 1.079-2.318 1.079-4.007v-1.33h2.747c.316 0 .57-.253.57-.569v-.527a.567.567 0 0 0-.57-.568" mask="url(#h)"/>
                <path fill="#493426" d="M198.02 279.738a.623.623 0 0 1-.57-.877c.335-.756 1.156-1.244 2.09-1.244.692 0 1.357.283 1.776.757a.626.626 0 1 1-.936.828c-.187-.21-.501-.336-.84-.336-.427 0-.816.207-.947.499a.626.626 0 0 1-.573.373M213.497 279.738a.628.628 0 0 1-.573-.371c-.13-.294-.518-.501-.946-.501-.336 0-.658.13-.84.336a.626.626 0 0 1-.938-.828c.422-.474 1.087-.757 1.778-.757.933 0 1.756.488 2.09 1.244a.624.624 0 0 1-.571.877M205.748 291.99c-2.263 0-2.983-1.408-3.013-1.468a.46.46 0 1 1 .825-.412c.026.049.538.958 2.188.958 1.638 0 2.215-.971 2.22-.98a.462.462 0 0 1 .801.46c-.035.06-.857 1.442-3.021 1.442" mask="url(#h)"/>
                <path fill="#5DDA5B" d="M187.924 325.09c-.6 5.868-5.2 7.466-7.78 7.9l-.3-14.716c1.859-.015 4.936.223 6.701 1.917 1.152 1.102 1.603 2.705 1.379 4.9m-10.17-10.28a1.8 1.8 0 0 0-1.547 1.818l.375 18.357a1.798 1.798 0 0 0 1.773 1.76l.173.002c4.191 0 12.066-2.337 12.978-11.291.338-3.324-.49-5.967-2.464-7.86-3.943-3.781-10.987-2.827-11.288-2.786M202.136 331.892c-1.888 1.494-3.767 1.912-4.905 1.099-1.31-.934-1.552-3.238-.614-5.868.784-2.206 2.284-2.93 3.403-2.683a3.1 3.1 0 0 1 2.073 1.534c-.132 2.005-.152 4.095.069 5.906-.009.005-.019.007-.026.012m3.986-9.98a1.798 1.798 0 0 0-1.542-2.022c-.98-.12-1.892.556-2.026 1.539a3.94 3.94 0 0 1-.019.148 6.995 6.995 0 0 0-1.715-.642c-2.594-.573-6.078.72-7.598 4.984-1.51 4.242-.778 8.073 1.912 9.996 1.008.72 2.188 1.077 3.446 1.077 1.49 0 3.09-.521 4.649-1.497.244.386.525.709.858.937.323.22.697.326 1.067.326.574 0 1.14-.257 1.482-.756.562-.818.395-1.902-.424-2.463-.758-.946-.8-6.377-.09-11.626M217.308 321.453c-.64 5.187-2.163 10.403-3.283 11.369-1.016-1.017-2.245-6.036-2.647-10.957a1.795 1.795 0 0 0-1.941-1.648 1.8 1.8 0 0 0-1.65 1.939c.433 5.32 1.806 14.257 6.15 14.35h.065c4.417 0 6.206-9.145 6.88-14.614a1.797 1.797 0 0 0-1.568-2.003c-.971-.145-1.885.58-2.006 1.564zM228.18 323.115c.206-.047.432-.074.662-.074.884 0 1.87.386 2.387 1.502.125.267.084.331.057.38-.51.864-3.18 1.675-5.775 2.052-.003-2.408 1.374-3.573 2.668-3.86m6.201 7.665a1.808 1.808 0 0 0-2.449.7c-.656 1.174-1.651 1.7-3.063 1.673-1.27-.045-2.444-.33-3.008-2.594 2.575-.35 7.05-1.306 8.527-3.81.663-1.119.702-2.44.113-3.716-1.258-2.714-4.109-4.097-7.104-3.428-2.748.611-5.509 3.14-5.489 7.413.014 2.596.05 9.49 6.836 9.727.1.004.197.005.296.005 2.628 0 4.766-1.243 6.038-3.523a1.798 1.798 0 0 0-.697-2.447" mask="url(#h)"/>
                <path fill="#C5C6C6" d="M208.19 230.098h-4.864a3.14 3.14 0 0 0-3.143 3.137v19.726a3.14 3.14 0 0 0 3.143 3.139h4.865a3.14 3.14 0 0 0 3.144-3.139v-19.726a3.14 3.14 0 0 0-3.144-3.137" mask="url(#h)"/>
            </g>
        </g>
    </g>
</svg>
