<svg xmlns="http://www.w3.org/2000/svg" xmlns:xlink="http://www.w3.org/1999/xlink" width="480" height="233" viewBox="0 0 480 233">
    <defs>
        <path id="a" d="M0 .016h157.873v157.873H0z"/>
    </defs>
    <g fill="none" fill-rule="evenodd">
        <g opacity=".3" transform="translate(107 46.096)">
            <mask id="b" fill="#fff">
                <use xlink:href="#a"/>
            </mask>
            <path fill="#FFF" d="M157.874 78.952c0-43.595-35.341-78.937-78.937-78.937C35.342.015 0 35.357 0 78.952s35.342 78.937 78.937 78.937c43.596 0 78.937-35.342 78.937-78.937" mask="url(#b)"/>
        </g>
        <path fill="#FFF" d="M245.824 125.047c0-33.074-26.812-59.885-59.887-59.885s-59.887 26.81-59.887 59.885c0 33.076 26.812 59.887 59.887 59.887s59.887-26.811 59.887-59.887" opacity=".6"/>
        <path fill="#FFF" d="M226.642 125.047c0-22.48-18.225-40.704-40.706-40.704-22.48 0-40.704 18.224-40.704 40.704 0 22.481 18.224 40.706 40.704 40.706 22.481 0 40.706-18.225 40.706-40.706"/>
        <path fill="#B3DADE" d="M457.779 52.949c-3.041-14.839-16.173-26.001-31.912-26.001-3.714 0-7.277.629-10.601 1.772C408.706 11.913 392.37 0 373.24 0c-24.704 0-44.76 19.864-45.091 44.491a24.073 24.073 0 0 0-5.073-.541C309.779 43.95 299 54.73 299 68.026c0 13.296 10.779 24.075 24.076 24.075h136.52c10.837 0 19.62-8.783 19.62-19.619 0-10.835-8.783-19.62-19.62-19.62-.613 0-1.218.032-1.817.087zM95.011 209.273c-.363 0-.721.02-1.075.053-1.8-8.78-9.57-15.385-18.88-15.385-2.197 0-4.305.373-6.272 1.05C64.904 185.048 55.24 178 43.922 178c-14.616 0-26.48 11.751-26.678 26.321a14.207 14.207 0 0 0-3-.32C6.376 204.001 0 210.378 0 218.244c0 7.867 6.377 14.245 14.243 14.245h80.768c6.411 0 11.608-5.197 11.608-11.608 0-6.41-5.197-11.608-11.608-11.608"/>
    </g>
</svg>
