<svg xmlns="http://www.w3.org/2000/svg" width="108" height="28" viewBox="0 0 108 28">
    <g fill="#44D95E" fill-rule="evenodd">
        <path d="M43.195 17.232c0 5.621-8.392 5.944-8.412 1.879-.017-3.515 3.783-3.989 8.412-2.637v.758zm4.53-14.42C45.42 1.129 42.622.276 39.411.276c-3.78 0-6.365.655-8.194 1.226-4.213 1.316-2.74 7.616 2.17 6.477 4.223-.977 9.828-1.524 9.828 3.224v.312c-1.334-.38-4.125-1.002-7.346-.7-5.636.531-9.277 3.768-9.277 8.246 0 5.354 3.664 8.814 9.334 8.814 4.066 0 6.398-1.747 7.553-2.853.202.535.516 1.025.93 1.439a4.048 4.048 0 0 0 2.88 1.193h.148a4.08 4.08 0 0 0 4.075-4.074V11.98c0-.08 0-.172.002-.275.022-1.66.08-6.07-3.789-8.893zM10.23 21.225H8.043V6.954h2.187c4.713 0 7.13 3.194 7.13 7.135s-2.462 7.136-7.13 7.136M11.81.707H4.13A4.133 4.133 0 0 0 0 4.836v18.507A4.133 4.133 0 0 0 4.13 27.47h7.892c3.617 0 7.006-1.42 9.542-3.999a13.29 13.29 0 0 0 3.839-9.611C25.28 6.608 19.184.707 11.81.707M70.434 3.008L65.418 16.9 60.4 3.008A4.139 4.139 0 0 0 56.508.275c-3.02 0-5.023 3.129-3.759 5.872l8.907 19.32a4.142 4.142 0 0 0 7.523 0l8.907-19.32C79.35 3.404 77.347.275 74.327.275a4.139 4.139 0 0 0-3.893 2.733M90.967 6.735c4.257 0 5.025 3.959 5.025 5.027h-9.743c0-2.658 2.215-5.027 4.718-5.027m.926 14.487c-2.28 0-5.266-1.631-5.638-4.325h13.323c1.209 0 2.397-.445 3.23-1.32a4.21 4.21 0 0 0 1.143-3.481C103.041 5.356 97.51.276 91.09.276c-7.168 0-12.996 6.188-12.996 13.796 0 7.611 5.828 13.803 12.996 13.803 4.157 0 7.219-1.275 9.326-2.67 1.923-1.273 1.945-4.09.053-5.411a3.294 3.294 0 0 0-3.815.049c-1.368.986-2.68 1.379-4.76 1.379"/>
        <path fill-rule="nonzero" d="M108 2.78c0 .702-.239 1.292-.723 1.777-.485.484-1.082.723-1.777.723-.702 0-1.292-.239-1.777-.723-.484-.485-.723-1.075-.723-1.777s.239-1.292.723-1.777C104.208.52 104.798.28 105.5.28c.695 0 1.292.239 1.777.723.484.485.723 1.075.723 1.777zm-.33 0c0-.597-.21-1.11-.64-1.53a2.068 2.068 0 0 0-1.53-.64c-.597 0-1.11.21-1.53.64a2.068 2.068 0 0 0-.64 1.53c0 .597.21 1.11.64 1.53.42.43.933.64 1.53.64s1.11-.21 1.538-.64c.421-.42.632-.933.632-1.53zm-1.819.197l.78 1.25h-.541l-.695-1.201h-.358v1.2h-.45V1.334l.997.007c.253 0 .464.078.64.225a.757.757 0 0 1 .266.611c0 .246-.063.428-.196.555a.87.87 0 0 1-.443.246zm.176-.794c0-.316-.204-.47-.604-.47h-.386v.94h.386c.4 0 .604-.154.604-.47z"/>
    </g>
</svg>
