<svg xmlns="http://www.w3.org/2000/svg" width="28" height="28" viewBox="0 0 28 28">
    <path fill="#5DDA5B" fill-rule="evenodd" d="M19.98 17.573l8.02 8.02L25.594 28l-7.948-8.02v-1.24l-.51-.438c-1.945 1.653-4.205 2.48-6.782 2.48-2.868 0-5.31-1.01-7.328-3.027C1.009 15.738 0 13.295 0 10.427 0 7.56 1.009 5.104 3.026 3.063 5.043 1.02 7.462 0 10.281 0c2.868 0 5.311 1.02 7.328 3.063 2.018 2.041 3.026 4.496 3.026 7.364 0 2.576-.826 4.837-2.479 6.781l.51.365h1.313zM5.25 15.53c1.41 1.361 3.111 2.042 5.104 2.042 1.993 0 3.695-.693 5.104-2.078 1.41-1.386 2.115-3.075 2.115-5.068 0-1.993-.705-3.694-2.115-5.104-1.41-1.41-3.11-2.115-5.104-2.115-1.993 0-3.682.705-5.068 2.115-1.385 1.41-2.078 3.111-2.078 5.104 0 1.993.68 3.695 2.042 5.104z"/>
</svg>
