<svg xmlns="http://www.w3.org/2000/svg" width="525" height="427" viewBox="0 0 525 427">
    <g fill="none" fill-rule="evenodd">
        <path fill="#9D7354" d="M380.974 45.554c-29.714-32.776-52.227-7.693-68.887 4.96-5.322 3.88-10.474 3.937-17.343 3.537-1.476-3.41-1.338-8.723.593-12.159-12.223-2.136-26.638 6.196-26.638 6.196-1.484-4.992.221-12.023 2.272-18.881-30.175 2.266-37.337 21.306-53.828 21.306h-4.437c-16.66-12.652-39.18-37.735-68.897-4.959-13.213 14.576-15.321 37.665 15.862 54.632-10.859 40.36-17.504 127.788-17.504 127.788s27.074 42.395 120.227 42.395c93.154 0 120.228-42.395 120.228-42.395s-6.64-87.428-17.5-127.788c31.176-16.967 29.076-40.056 15.852-54.632"/>
        <path fill="#493426" d="M183.843 65.093c2.032-1.999 1.203-5.422-1.51-6.298-3.959-1.281-9.383-1.902-13.767 1.773-7.566 6.334-5.315 12.535-2.753 16.147 1.336 1.882 4.055 2.09 5.702.474l12.328-12.096zM340.95 65.093c-2.034-1.999-1.203-5.422 1.508-6.298 3.96-1.281 9.382-1.902 13.77 1.773 7.563 6.334 5.312 12.535 2.75 16.147-1.337 1.882-4.055 2.09-5.703.474l-12.324-12.096z"/>
        <path fill="#EBBF8D" d="M297.943 223.17c0 28.153-15.917 32.428-35.55 32.428-19.63 0-35.544-4.543-35.544-32.428 0-30.941 15.914-53.784 35.544-53.784 19.633 0 35.55 22.843 35.55 53.784"/>
        <path fill="#493426" d="M238.622 95.108a5.516 5.516 0 0 1-7.58 1.838l-1.108-.676c-7.76-4.735-14.614-5.565-23.651-2.867l-1.242.37a5.515 5.515 0 0 1-6.867-3.707l-.74-2.482a5.517 5.517 0 0 1 3.708-6.864l1.242-.372c12.647-3.776 23.654-2.411 34.648 4.291l1.104.674a5.522 5.522 0 0 1 1.838 7.583l-1.352 2.212zM285.91 108.18l-1.269-2.26a5.517 5.517 0 0 1 2.103-7.51l1.13-.634c11.223-6.31 22.274-7.28 34.78-3.054l1.224.413a5.518 5.518 0 0 1 3.462 6.994l-.829 2.453a5.514 5.514 0 0 1-6.991 3.462l-1.23-.416c-8.935-3.017-15.812-2.43-23.739 2.022l-1.128.637a5.519 5.519 0 0 1-7.513-2.108"/>
        <path fill="#303030" d="M417.86 397.538c-6.547 15.071-20.16 20.86-56.266 22.335-.37.021-.777.037-1.167.037 0 0-1.263.099-3.514.255l-.777.06c-.291.017-.564.017-.876.036-4.408.29-11.342.66-19.54.855-.641 0-1.262.018-1.902.039-2.526.057-5.068.078-7.594.078H196.692a491.132 491.132 0 0 1-30.161-1.165c-.195 0-.39-.02-.564-.041-1.05-.057-1.612-.117-1.612-.117-.234 0-.447-.016-.68-.016h-.058c-36.438-1.44-50.111-7.207-56.677-22.356-11.44-26.318 8.76-83.247 28.844-128.581l.679-1.669c-19.17-8.353-7.847-42.031 5.71-39.312 0 0 49.217 40.222 120.227 40.222 70.776 0 120.228-40.222 120.228-40.222 13.538-2.719 24.862 30.959 5.692 39.312l.68 1.669c20.08 45.334 40.283 102.263 28.86 128.58"/>
        <path stroke="#493426" stroke-linecap="round" stroke-linejoin="round" stroke-width="10.741" d="M311.65 141.31h-15.26"/>
        <path fill="#493426" d="M202.645 140.543c0 6.269 3.573 11.347 7.981 11.347 4.41 0 7.985-5.078 7.985-11.347 0-6.266-3.574-6.552-7.985-6.552-4.408 0-7.981.286-7.981 6.552M284.854 194.579c0 3.04-5.326 7.8-10.786 11.885a19.497 19.497 0 0 1-23.347 0c-5.46-4.086-10.786-8.844-10.786-11.885 0-6.246 10.056-11.311 22.458-11.311 12.405 0 22.46 5.065 22.46 11.31"/>
        <path fill="#EBBF8D" d="M274.56 192.601c0 .614-1.256 1.313-2.964 1.976a25.438 25.438 0 0 1-18.406 0c-1.705-.663-2.96-1.362-2.96-1.976 0-1.907 5.445-3.456 12.163-3.456 6.719 0 12.166 1.549 12.166 3.456"/>
        <path fill="#493426" d="M262.397 240.173c-18.526 0-21.72-15.693-21.72-15.693a3.495 3.495 0 0 1 3.493-3.498h36.448a3.495 3.495 0 0 1 3.494 3.498s-3.429 15.693-21.715 15.693"/>
        <path fill="#303030" d="M312.623 169.39c-18.393 0-31.25-11.284-31.25-27.463 0-8.84.096-13.148 2.193-14.645 3.826-2.74 17.013-2.971 29.057-2.971 12.062 0 25.231.231 29.075 2.97 2.08 1.498 2.175 5.807 2.175 14.646 0 17.54-1.455 27.464-31.25 27.464m-100.475 0c-25.421 0-30.195-7.23-31.048-20.247-.148-2.237-.184-4.644-.184-7.217 0-8.84.077-13.148 2.175-14.645 3.828-2.74 17.016-2.971 29.057-2.971 12.062 0 25.231.231 29.075 2.97.751.536 1.237 1.45 1.56 2.787.579 2.393.615 6.185.615 11.859 0 16.179-12.836 27.464-31.25 27.464m162.919-48.636h-23.404a14.264 14.264 0 0 0-3.166-3.01c-6.139-4.392-16.452-5.148-35.874-5.148-19.425 0-29.735.756-35.874 5.149-3.244 2.313-5.008 5.281-5.965 8.857h-16.8c-.951-3.576-2.7-6.544-5.96-8.857-6.12-4.393-16.454-5.149-35.876-5.149-19.402 0-29.738.756-35.854 5.149a14.208 14.208 0 0 0-3.165 3.01h-23.407a3.975 3.975 0 0 0-3.979 3.981v3.75a3.988 3.988 0 0 0 3.98 3.982h19.463v9.458c0 11.846 1.281 21.172 7.556 28.24 6.624 7.46 17.868 10.935 35.406 10.935 24.9 0 42.985-16.47 42.985-39.175v-3.592h14.528v3.592c0 22.705 18.063 39.175 42.962 39.175 17.559 0 28.805-3.475 35.427-10.934 6.253-7.07 7.535-16.395 7.535-28.241v-9.458h19.482a3.99 3.99 0 0 0 3.984-3.981v-3.75a3.976 3.976 0 0 0-3.984-3.983"/>
        <g fill="#FFF" opacity=".45">
            <path d="M212.148 169.39c18.414 0 31.25-11.284 31.25-27.463 0-2.155-.005-4.036-.042-5.676l-61.146 19.963c2.466 8.535 9.577 13.177 29.938 13.177M285.118 155.738c5.075 8.426 14.999 13.653 27.505 13.653 29.795 0 31.25-9.923 31.25-27.464 0-2.02-.007-3.792-.039-5.357l-58.716 19.168z"/>
        </g>
        <path fill="#C5C6C6" d="M474.026 136.005v290.837H262.393V160.518z"/>
        <path fill="#D9DADA" d="M262.394 160.517v266.326H50.762v-290.84z"/>
        <path fill="#303030" d="M204.076 32.034c-11.199 9.037 4.442 54.499 67.278 70.82 62.137 16.143 77.693-55.636 55.702-62.5-14.481-4.52-37.27 17.184-58.62 14.034-21.354-3.152-50.148-33.818-64.36-22.354"/>
        <path fill="#303030" d="M229.69 38.493S240.023-6.729 256.94.86c4.423 1.98 14.718 10.923 19.544 11.347 4.79.421 11.09-4.065 15.569-5.82 9.964-3.9 20.332 17.396 19.695 49.114 0 0-44.007 30.957-82.056-17.008"/>
        <path fill="#44DB5E" d="M234.074 23.968s13.52 23.438 39.266 27.235c25.748 3.8 37.75-11.698 37.75-11.698.926 3.568.676 12.06.676 12.06s-4.447 18.41-36.898 13.62c-38.647-5.701-44.253-29.23-44.253-29.23s1.778-9.118 3.46-11.987"/>
        <path fill="#ADADAD" d="M362.903 162.878l95.383-11.04v32.638l-80.683 9.489M377.045 215.61v-9.778l81.242-9.406v9.778zM377 238.18v-9.777L458.242 219v9.777zM377 326.18v-9.777L458.242 307v9.777zM281 271.446v-9.783L361.938 252v9.777zM281 359.446v-9.783L361.938 340v9.777zM377 260.18v-9.777L458.242 241v9.777zM377 348.18v-9.777L458.242 329v9.777zM281 293.448v-9.78L361.938 274v9.78zM281 381.448v-9.78L361.938 362v9.78zM377 283.18v-9.777L458.242 264v9.775zM377 371.18v-9.777L458.242 352v9.775zM281 316.451v-9.783L361.938 297v9.78zM281 404.451v-9.783L361.938 385v9.78zM281.39 226.835v-9.782l80.938-9.666v9.777zM281.39 249.247v-9.783l80.938-9.666v9.78zM362.903 162.878l-81.513 9.738v32.787l96.213-11.438M377 305.175v-9.777L458.2 286v9.777zM377 393.175v-9.777L458.2 374v9.777z"/>
        <path fill="#ADADAD" d="M377 326.175v-9.777L458.2 307v9.777zM377 414.175v-9.777L458.2 395v9.777zM281 337.451v-9.783L361.938 318v9.78zM281 425.451v-9.783L361.938 406v9.78z"/>
        <path fill="#C5C6C6" d="M243.4 248.886l-81.511-9.738v-76.27l81.51 9.738zM147.746 170.787l-80.684-9.341v-9.775l80.684 9.338zM147.746 193.198l-80.684-9.34v-9.776l80.684 9.338zM147.746 215.61l-80.684-9.341v-9.775l80.684 9.338zM147.684 238.116L67 228.775V219l80.684 9.338zM147.684 327.116L67 317.775V308l80.684 9.338zM243.51 271.519L162 261.783V252l81.51 9.736zM243.51 360.519L162 350.783V341l81.51 9.736zM147.684 260.113L67 250.773V241l80.684 9.336zM147.684 350.113L67 340.773V331l80.684 9.336zM243.51 293.519L162 283.783V274l81.51 9.738zM243.51 383.519L162 373.783V364l81.51 9.738zM147.684 283.116L67 273.775V264l80.684 9.338zM147.684 372.116L67 362.775V353l80.684 9.338zM243.51 316.521L162 306.783V297l81.51 9.738zM243.51 405.521L162 395.783V386l81.51 9.738zM147.684 305.116L67 295.775V286l80.684 9.338zM147.684 394.116L67 384.775V375l80.684 9.338zM243.51 336.519L162 326.783V317l81.51 9.738zM243.51 426.519L162 416.783V407l81.51 9.738z"/>
        <path fill="#C5C6C6" d="M147.684 326.116L67 316.775V307l80.684 9.338zM147.684 415.116L67 405.775V396l80.684 9.338zM86.286 274.112s4.12 7.499.972 13.463c-6.7 12.624-21.073 15.012-36.495 14.565v-93.073c15.071-.486 29.62 1.69 35.523 13.83 2.973 6.115 0 12.449 0 12.449s8.527 8.119 8.527 20.277c0 12.857-8.527 18.49-8.527 18.49"/>
        <path fill="#DDD" d="M225.993 185.756s5.655 2.503 9.302 2.594c0 0 2.796.172 2.432 3.02-.366 2.849-1.863 7.885-11.934 5.965-10.074-1.92.2-11.579.2-11.579"/>
        <path fill="#EBEBEB" d="M227.879 192.81c0 8.407-7.431 13.803-16.6 12.043-9.164-1.762-16.595-10.006-16.595-18.416s7.43-13.803 16.595-12.044c9.169 1.76 16.6 10.006 16.6 18.417"/>
        <path fill="#EBEBEB" d="M200.249 198.883s-7.774 4.912-12.86 3.938c-5.198-.998-9.323-9.95-14.775-8.491-6.75 1.804-9.484 36.298 25.717 43.052 35.2 6.76 32.285-17.694 32.285-17.694s-.733-15.118-18.607-18.549l-11.76-2.256z"/>
        <path fill="#DDD" d="M194.239 209.675c-5.097-1.356-5.658-4.262-7.743-3.272-2.963 1.406-4.416 15.311 12.465 18.55 16.88 3.24 15.48-8.486 15.48-8.486s-.242-5.032-5.284-7.665a9.318 9.318 0 0 0-5.42-1.003c-2.837.34-4.183 3.295-9.498 1.876M220.28 190.467c0-1.744-1.417-3.43-3.163-3.766-1.747-.335-3.163.806-3.163 2.552 0 1.747 1.416 3.433 3.163 3.769 1.746.335 3.163-.809 3.163-2.555"/>
        <path fill="#9D7354" d="M41.762 286.186C6.832 283.327.002 258.343.002 240.194c0-18.682 8.457-43.175 41.76-45.995 17.954-1.52 37.46-1.278 44.527 13.276 2.965 6.108 0 12.455 0 12.455s8.517 8.103 8.517 20.264c0 12.862-8.517 18.502-8.517 18.502s4.111 7.49.961 13.45c-7.968 15.077-26.92 15.56-45.488 14.04"/>
        <path fill="#ADADAD" d="M474.026 209.066v93.076c-15.423.444-29.795-1.944-36.496-14.568-3.147-5.964.972-13.462.972-13.462s-8.527-5.632-8.527-18.49c0-12.158 8.527-20.277 8.527-20.277s-2.973-6.331 0-12.45c5.905-12.14 20.452-14.315 35.524-13.829"/>
        <path fill="#9D7354" d="M483.026 286.186c34.93-2.859 41.76-27.843 41.76-45.992 0-18.682-8.457-43.175-41.76-45.995-17.954-1.52-37.46-1.278-44.527 13.276-2.965 6.108 0 12.455 0 12.455s-8.516 8.103-8.516 20.264c0 12.862 8.52 18.502 8.52 18.502s-4.115 7.49-.965 13.45c7.968 15.077 26.92 15.56 45.488 14.04"/>
    </g>
</svg>
