<svg xmlns="http://www.w3.org/2000/svg" xmlns:xlink="http://www.w3.org/1999/xlink" width="717" height="244" viewBox="0 0 717 244">
    <defs>
        <path id="a" d="M0 .6h108.538v108.344H0z"/>
        <path id="c" d="M87.5 50.327a313.94 313.94 0 0 1-.884 17.959c-.767 8.913-9.109 17.24-18.036 18.004a316.144 316.144 0 0 1-49.113 0C10.538 85.526 2.196 77.2 1.43 68.286a307.43 307.43 0 0 1-.974-23.187c0-1.498.014-2.996.014-4.494.077-7.114.405-14.229.96-21.343.766-8.913 9.108-17.24 18.037-18.005a312.622 312.622 0 0 1 49.113 0c8.927.764 17.27 9.092 18.036 18.005.554 7.114.87 14.229.945 21.343.028 3.236.015 6.471-.061 9.722"/>
        <path id="e" d="M.136.06h86.253v98.773H.136z"/>
        <path id="g" d="M0 .201h14.64v14.398H0z"/>
        <path id="i" d="M.502.478h22.491v15.421H.502z"/>
        <path id="k" d="M86.15 68.43c-.678 7.915-7.31 15.34-15.036 17.457-.26.072-.519.143-.778.202-.736.173-1.485.288-2.22.344-8.246.649-16.463.965-24.709.965h-1.08c-7.77-.03-15.54-.346-23.325-.965-7.468-.633-14.531-6.562-17.068-13.7a18.114 18.114 0 0 1-.577-1.913 15.244 15.244 0 0 1-.39-2.39l-.086-1.178a102.51 102.51 0 0 1-.216-2.965 313.02 313.02 0 0 1 .303-44.881c.764-8.91 9.11-17.241 18.034-18.004a314.392 314.392 0 0 1 49.114 0c8.923.763 17.27 9.095 18.034 18.004a312.705 312.705 0 0 1 0 49.025"/>
        <path id="m" d="M0 .165h21.935V36.71H0z"/>
        <path id="o" d="M86.148 68.286c-.765 8.912-9.108 17.24-18.037 18.005a316.5 316.5 0 0 1-49.112 0C10.073 85.525 1.728 77.198.964 68.286a314.224 314.224 0 0 1-.75-36.054v-.06c.09-2.366.209-4.717.344-7.084.12-1.947.256-3.88.406-5.826.764-8.914 9.109-17.242 18.035-18.004a312.274 312.274 0 0 1 49.112 0c8.93.762 17.272 9.09 18.037 18.004a341.682 341.682 0 0 1 .751 12.565v.032a314.518 314.518 0 0 1-.75 36.427"/>
        <path id="q" d="M.447.493h52.08v49.172H.448z"/>
        <path id="s" d="M0 .151h19.651v28.183H0z"/>
        <path id="u" d="M.037.036H60.93v45.987H.037z"/>
        <path id="w" d="M.37.51h30.446v9.15H.371z"/>
        <path id="y" d="M.56.51h30.445v9.15H.56z"/>
        <path id="A" d="M.072.318h17.83V11.48H.072z"/>
        <path id="C" d="M87.2 59.118c-.15 3.1-.344 6.215-.584 9.318-.767 8.91-9.109 17.239-18.036 18.002a316.144 316.144 0 0 1-49.113 0c-8.929-.763-17.271-9.092-18.037-18.002a277.11 277.11 0 0 1-.584-9.318A307.552 307.552 0 0 1 1.43 19.41c.766-8.912 9.108-17.24 18.037-18.002a312.274 312.274 0 0 1 49.113 0c8.927.763 17.27 9.09 18.036 18.002a313.347 313.347 0 0 1 .584 39.71"/>
        <path id="E" d="M0 0h84v82.774H0z"/>
        <path id="G" d="M16.306 33.303L17.866.21S.245 2.88.245 33.303h16.061z"/>
        <path id="I" d="M0 0h471v250H0z"/>
        <path id="K" d="M.48.206h167.191v157.616H.48z"/>
    </defs>
    <g fill="none" fill-rule="evenodd">
        <path fill="#4B6166" d="M502 28h206a9 9 0 0 1 9 9v207H493V37a9 9 0 0 1 9-9z"/>
        <path fill="#2C383D" d="M594.339 234.839H507.66c-3.677 0-6.661-2.977-6.661-6.65v-80.7c0-3.673 2.984-6.65 6.661-6.65h86.678c3.679 0 6.661 2.977 6.661 6.65v80.7c0 3.673-2.982 6.65-6.661 6.65M702.51 234.839h-87.02c-3.585 0-6.49-2.977-6.49-6.65v-80.7c0-3.673 2.905-6.65 6.49-6.65h87.02c3.585 0 6.49 2.977 6.49 6.65v80.7c0 3.673-2.905 6.65-6.49 6.65"/>
        <g transform="translate(493 27.839)">
            <mask id="b" fill="#fff">
                <use xlink:href="#a"/>
            </mask>
            <path fill="#4B6166" d="M108.538 108.944H0V10.291C0 4.939 4.347.599 9.709.599h98.829v108.345z" mask="url(#b)"/>
        </g>
        <path fill="#2C383D" d="M594.339 132.839H507.66c-3.677 0-6.661-2.977-6.661-6.65v-80.7c0-3.673 2.984-6.65 6.661-6.65h86.678c3.679 0 6.661 2.977 6.661 6.65v80.7c0 3.673-2.982 6.65-6.661 6.65M702.51 132.839h-87.02c-3.585 0-6.49-2.977-6.49-6.65v-80.7c0-3.673 2.905-6.65 6.49-6.65h87.02c3.585 0 6.49 2.977 6.49 6.65v80.7c0 3.673-2.905 6.65-6.49 6.65"/>
        <g transform="matrix(-1 0 0 1 595 41.839)">
            <mask id="d" fill="#fff">
                <use xlink:href="#c"/>
            </mask>
            <use fill="#92ECF6" xlink:href="#c"/>
            <g mask="url(#d)">
                <g transform="translate(-3.61 10.486)">
                    <mask id="f" fill="#fff">
                        <use xlink:href="#e"/>
                    </mask>
                    <path fill="#008DA0" d="M45.802 43.259h-.004l.003-.001.004-.001-.003.002zm37.766 5.48a35.914 35.914 0 0 0-.482-6.13c3.452-5.254 5.256-13.13.02-24.275-.885-2.693-2.072-5.32-4.657-5.547-1.022-.088-1.828.93-1.828.93s-1.295-.86-3.098-.1c-1.705.72-2.337 2.393-2.337 2.393s-1.065-.041-1.746.736c-.652.744-.857 1.636-.79 2.59a35.782 35.782 0 0 0-7.126-4.011 36.059 36.059 0 0 0-7.52-2.217c-.496-.84-.98-1.614-1.438-2.282 3.967-4.389 2.363-7.903-.521-9.467-5.721-3.102-8.071.574-9.866 3.48-.389-.162-.787-.338-1.155-.522a9.582 9.582 0 0 1-.723-.394c-.411-.251-.774-.767-1.073-1.342v-.003c-.593-1.139-2.164-3.9-8.494-1.679-6.394 2.244-5.832 5.361-5.58 6.62.125.636.164 1.265-.001 1.719-.113.314-.269.662-.44 1.017-.107.218-.221.437-.336.654-3.18-1.126-7.166-2.306-9.629 3.537-1.274 3.021-.331 6.768 5.51 7.716.058.79.161 1.678.294 2.623a35.773 35.773 0 0 0-6.728 11.34c-.316.864-.59 1.743-.838 2.627-.537-.74-1.236-1.27-2.173-1.437-1.017-.18-1.822.516-1.822.516s-1.54-.91-3.32-.408c-1.883.533-2.355 2.014-2.355 2.014s-1.268-.291-2.01.416c-1.877 1.791-1.162 4.586-.17 7.24 2.86 11.91 9.13 16.944 15.072 18.913a36.096 36.096 0 0 0 1.839 2.985 35.753 35.753 0 0 0 16.504 12.994c1.397 3.38 3.246 6.845 5.655 9.617l2.17-.761c.88.91 1.85 1.815 2.928 2.706 0 0-1.945 2.31-.99 4.106 1.037 1.954 4.051 1.194 8.04-.205 7.303-2.562 7.11-5.247 6.045-7.382-.466-.934-1.22-2.576-1.63-4.275l.966-.34s-.175-1.173-.13-2.43a35.59 35.59 0 0 0 3.83-1.333c.819.95 1.412 1.97 1.412 1.97l.975-.317c.736 1.577 1.17 3.32 1.389 4.336.502 2.331 2.03 4.548 9.332 1.985 3.99-1.4 6.816-2.689 6.406-4.863-.376-1.998-3.339-2.587-3.339-2.587.255-1.223.43-2.399.55-3.535l2.356-.765c.155-3.794-.638-7.842-1.736-11.511a35.744 35.744 0 0 0 1.984-3.988 36.046 36.046 0 0 0 2.804-13.673z" mask="url(#f)"/>
                </g>
                <path fill="#FF5224" d="M53.48 65.285a20.201 20.201 0 0 1-5.469 5.641 20.223 20.223 0 0 1-7.198 3.147c-4.7 1.03-9.62.345-13.843-1.892a20.181 20.181 0 0 1-7.152-6.352 20.207 20.207 0 0 1-3.144-7.196 20.296 20.296 0 0 1 1.89-13.846 20.163 20.163 0 0 1 6.352-7.151 20.193 20.193 0 0 1 8.923-3.447c4.739-.617 9.59.468 13.629 3.076a20.216 20.216 0 0 1 5.641 5.468 20.184 20.184 0 0 1 3.448 8.928c.611 4.737-.47 9.585-3.077 13.624m-3.092-44.17a36.05 36.05 0 0 0-13.678-2.801 35.793 35.793 0 0 0-20.748 6.414A35.787 35.787 0 0 0 2.688 41.917 36.062 36.062 0 0 0 .52 55.713a35.83 35.83 0 0 0 6.391 19.07A35.781 35.781 0 0 0 24.1 88.056a35.989 35.989 0 0 0 13.793 2.165 35.794 35.794 0 0 0 19.073-6.389 35.79 35.79 0 0 0 12.662-15.628 36.079 36.079 0 0 0 2.805-13.674 35.79 35.79 0 0 0-6.417-20.752 35.785 35.785 0 0 0-15.628-12.663"/>
                <path fill="#D0D2D3" d="M16.674 58.634L.52 55.712a36.06 36.06 0 0 1 2.169-13.795l15.875 2.87a20.296 20.296 0 0 0-1.889 13.847M40.813 74.073l-2.92 16.148A35.959 35.959 0 0 1 24.1 88.056l2.87-15.875a20.324 20.324 0 0 0 13.843 1.892M56.557 51.66l15.876 2.87a36.079 36.079 0 0 1-2.805 13.675l-16.148-2.92a20.366 20.366 0 0 0 3.077-13.625M33.84 34.19l2.87-15.876a36.05 36.05 0 0 1 13.678 2.802l-2.92 16.149a20.338 20.338 0 0 0-13.629-3.076"/>
                <path fill="#FFF" d="M17.41 77.998a2.176 2.176 0 0 1-3.075.114C1.195 65.91.43 45.292 12.633 32.152a2.176 2.176 0 0 1 3.19 2.962c-10.57 11.382-9.908 29.24 1.474 39.809.88.818.932 2.195.114 3.075"/>
                <path fill="#9D7354" d="M3.466 49.074s4.012 11.568 11.432 6.408l3.699 16.712S-3.776 78.804-10 52.885l13.466-3.81z"/>
                <g transform="translate(-11 42.862)">
                    <mask id="h" fill="#fff">
                        <use xlink:href="#g"/>
                    </mask>
                    <path fill="#9D7354" d="M1 10.023c1.865 4.995 5.806 4.96 8.463 4.208 2.735-.774 5.97-3.027 5.003-8.02C13.944 3.522 13.1.676 10.677.245 9.661.064 8.855.76 8.855.76s-1.54-.91-3.32-.408C3.651.886 3.18 2.366 3.18 2.366s-1.268-.29-2.01.416C-.707 4.574.008 7.37 1 10.022" mask="url(#h)"/>
                </g>
                <path fill="#493426" d="M-6.174 46.665c.276.972 1.197 1.562 2.059 1.319.861-.244 1.336-1.23 1.06-2.203-.274-.972-1.196-1.562-2.057-1.319-.862.244-1.337 1.23-1.062 2.203M-1.817 45.914c-.007.844.595 1.532 1.343 1.538.747.005 1.359-.675 1.365-1.519.006-.844-.596-1.532-1.343-1.537-.748-.006-1.359.674-1.365 1.518M-7.158 47.425c.447.716.297 1.617-.337 2.014-.635.396-1.51.137-1.958-.578-.448-.716-.297-1.617.337-2.014.634-.396 1.512-.137 1.958.578M-7.69 52.482c.346 1.226 2.637 1.65 5.116.949 2.48-.702 4.207-2.264 3.86-3.488-.345-1.227-2.637-1.65-5.116-.95-2.478.702-4.207 2.265-3.86 3.49"/>
                <path fill="#9D7354" d="M59.075 29.564s4.079 11.545-4.939 12.152l7.537 15.365s21.63-8.83 10.297-32.956l-12.895 5.439z"/>
                <path fill="#9D7354" d="M71.97 24.126c1.664 5.066-1.434 7.5-3.978 8.573-2.619 1.105-6.552 1.367-8.917-3.135-1.274-2.427-2.392-5.175-.77-7.027.68-.777 1.746-.736 1.746-.736s.632-1.672 2.337-2.391c1.802-.761 3.097.1 3.097.1s.806-1.02 1.828-.931c2.585.227 3.773 2.854 4.657 5.547"/>
                <path fill="#493426" d="M65.096 21.66c.393.93.042 1.968-.783 2.315-.826.349-1.812-.125-2.205-1.055-.393-.932-.043-1.969.783-2.316.825-.348 1.812.124 2.205 1.055M61.225 23.795c.532.655.493 1.569-.088 2.04-.58.471-1.482.322-2.014-.333-.532-.655-.492-1.569.088-2.04.58-.471 1.483-.322 2.014.333M66.339 21.639c.098.838.78 1.447 1.522 1.361.743-.087 1.265-.837 1.168-1.675-.098-.84-.78-1.447-1.522-1.361-.743.087-1.265.837-1.168 1.675M69.915 25.255c.494 1.173-1.028 2.935-3.402 3.937-2.374 1-4.7.861-5.195-.312-.495-1.173 1.029-2.936 3.402-3.937 2.374-1.001 4.7-.862 5.195.312"/>
                <path fill="#9D7354" d="M51.233 35.748L34.666 49.05l-21.248-.034c2.99 10.612 3.018 24.382 9.627 30.537 0 0 7.086 10.31 23.874 4.42 16.787-5.89 15.878-18.367 15.878-18.367 1.314-8.935-7.267-19.704-11.564-29.858"/>
                <path fill="#9D7354" d="M23.004 77.959s-.702 11.567 11.164 21.38c0 0-1.945 2.31-.991 4.106 1.038 1.954 4.051 1.194 8.04-.205 7.303-2.562 7.112-5.247 6.047-7.381-1.11-2.223-3.877-8.448.341-9.929l-3.064-8.733-21.537.762z"/>
                <path fill="#9D7354" d="M61.833 64.335s7.776 8.593 4.641 23.669c0 0 2.963.59 3.34 2.586.41 2.175-2.418 3.465-6.407 4.864-7.302 2.563-8.83.346-9.332-1.985-.523-2.428-2.252-9.019-6.47-7.538l-3.064-8.733 17.292-12.863zM40.91 7.151c-6.482-3.514-8.639 1.673-10.56 4.581-.623.904-1.43 1.197-2.533 1.513-.42-.454-.692-1.297-.577-1.945-2.04.34-3.848 2.445-3.848 2.445-.508-.704-.629-1.903-.684-3.095-4.62 2.021-4.697 5.411-7.29 6.321l-.697.245c-3.319-1.07-8.244-3.773-11.109 3.021-1.274 3.022-.332 6.77 5.508 7.717.52 6.946 4.298 21.062 4.298 21.062s6.598 5.173 21.248.034c14.648-5.14 16.567-13.302 16.567-13.302s-5.868-13.382-9.802-19.131c3.967-4.387 2.362-7.902-.522-9.466"/>
                <path fill="#493426" d="M11.067 21.073a.63.63 0 0 0-.584-.908c-.694.017-1.58.219-2.067 1.038-.841 1.415-.144 2.266.458 2.693a.628.628 0 0 0 .923-.24l1.27-2.583zM35.775 12.404a.63.63 0 0 1-.11-1.074c.552-.42 1.37-.817 2.263-.48 1.54.578 1.527 1.678 1.323 2.387a.627.627 0 0 1-.87.39l-2.606-1.223z"/>
                <path fill="#EBBF8D" d="M37.652 39.666c1.553 4.427-.714 5.977-3.802 7.06-3.088 1.084-5.84 1.248-7.38-3.138-1.707-4.866-.464-9.336 2.623-10.419 3.088-1.083 6.851 1.63 8.559 6.497"/>
                <path fill="#493426" d="M19.692 33.69a.736.736 0 0 1-.976-.752c.079-.968.799-1.828 1.836-2.192.767-.269 1.613-.214 2.263.148a.735.735 0 0 1-.715 1.284c-.289-.16-.686-.178-1.063-.046-.473.166-.825.547-.856.924a.732.732 0 0 1-.489.635M36.853 27.67a.736.736 0 0 1-.779-.19c-.26-.276-.772-.353-1.246-.186-.37.13-.678.397-.8.699a.735.735 0 0 1-1.36-.555c.28-.689.906-1.261 1.674-1.53 1.036-.364 2.136-.141 2.802.566a.734.734 0 0 1-.291 1.196M34.016 35.892c.167.478-.408 1.52-1.041 2.464a3.245 3.245 0 0 1-3.67 1.288c-1.086-.34-2.185-.795-2.353-1.274-.345-.982.957-2.333 2.908-3.018 1.95-.684 3.812-.442 4.156.54"/>
                <path fill="#EBBF8D" d="M32.288 36.15c.034.096-.125.275-.357.473a4.243 4.243 0 0 1-2.895 1.016c-.305-.011-.54-.051-.574-.148-.106-.3.665-.844 1.722-1.215 1.056-.37 1.999-.427 2.104-.127"/>
                <path fill="#493426" d="M32.989 44.312c-2.508.879-3.857-.405-3.914-.46a.542.542 0 0 1 .756-.78c.048.045.968.858 2.798.216 1.815-.637 2.08-1.94 2.082-1.954a.542.542 0 1 1 1.066.2c-.014.079-.388 1.936-2.788 2.778M21.408 23.413a.918.918 0 0 1-1.02.806l-.215-.024c-1.505-.175-2.6.177-3.78 1.216l-.162.143a.92.92 0 0 1-1.298-.082l-.285-.325a.92.92 0 0 1 .083-1.297l.162-.143c1.65-1.453 3.411-2.016 5.543-1.768l.214.026a.918.918 0 0 1 .807 1.019l-.05.429zM29.092 20.717l-.307-.304a.92.92 0 0 1-.007-1.3l.152-.154c1.509-1.525 3.235-2.187 5.433-2.083l.215.01a.92.92 0 0 1 .875.962l-.02.432a.92.92 0 0 1-.963.874l-.214-.01c-1.571-.074-2.647.336-3.712 1.413l-.152.153a.92.92 0 0 1-1.3.007"/>
                <path fill="#EBBF8D" d="M56.238 63.642c2.649 7.551-1.761 15.974-9.852 18.813-8.091 2.838-16.797-.982-19.448-8.535-2.649-7.551 1.762-15.974 9.853-18.813 8.09-2.839 16.797.983 19.447 8.535"/>
                <path fill="#303030" d="M37.01 30.4c-2.898 1.016-5.548-.051-6.443-2.6-.488-1.392-.711-2.077-.462-2.429.45-.643 2.516-1.409 4.412-2.074 1.901-.666 3.989-1.358 4.746-1.14.41.122.664.796 1.152 2.189.97 2.763 1.289 4.406-3.406 6.053m-15.83 5.554c-4.004 1.405-5.157.53-6.01-1.474a18.414 18.414 0 0 1-.429-1.126c-.488-1.393-.714-2.076-.466-2.428.452-.643 2.516-1.408 4.414-2.074 1.9-.667 3.988-1.358 4.745-1.139.147.043.275.16.4.353.222.345.439.94.752 1.834.895 2.548-.505 5.036-3.405 6.054m22.98-16.668l-3.688 1.294a2.362 2.362 0 0 0-.665-.3c-1.21-.352-2.877.099-5.937 1.172-3.06 1.075-4.643 1.763-5.367 2.794-.384.544-.498 1.11-.45 1.725l-2.647.93c-.348-.511-.787-.883-1.43-1.066-1.206-.353-2.876.098-5.937 1.172-3.057 1.071-4.642 1.762-5.364 2.793a2.39 2.39 0 0 0-.331.649L8.656 31.74a.664.664 0 0 0-.408.848l.207.591a.666.666 0 0 0 .848.407l3.066-1.076.523 1.49c.656 1.867 1.373 3.265 2.752 4.032 1.456.809 3.42.735 6.183-.234 3.923-1.377 5.862-4.97 4.606-8.55l-.198-.565 2.288-.802.199.565c1.256 3.578 5.011 5.174 8.935 3.798 2.766-.97 4.346-2.14 4.977-3.681.595-1.46.282-3-.374-4.867l-.522-1.49 3.069-1.077a.666.666 0 0 0 .407-.848l-.207-.59a.663.663 0 0 0-.847-.407"/>
                <path fill="#303030" d="M21.18 35.953c2.9-1.017 4.3-3.505 3.405-6.053-.12-.34-.225-.637-.32-.892l-8.531 6.524c.86 1.208 2.237 1.547 5.446.421"/>
                <path fill="#FFF" d="M23.433 27.712c-.757-.22-2.845.473-4.745 1.139-1.898.665-3.963 1.431-4.414 2.074-.248.352-.021 1.035.467 2.428.142.405.28.782.427 1.126.17.4.352.753.566 1.053l8.53-6.524c-.158-.419-.293-.73-.431-.944-.126-.192-.253-.309-.4-.352M39.347 22.199c-.028-.015-.054-.033-.085-.041-.756-.22-2.845.473-4.745 1.139-1.897.665-3.961 1.431-4.413 2.074-.248.352-.025 1.037.464 2.429.084.24.189.462.303.675.273.512.63.946 1.05 1.294l8.192-6.266c-.282-.75-.494-1.164-.766-1.304"/>
                <path fill="#303030" d="M31.921 29.769c1.266 1.047 3.118 1.322 5.089.63 4.693-1.646 4.375-3.29 3.405-6.054-.111-.318-.21-.597-.302-.842l-8.192 6.266z"/>
                <path fill="#F44A4C" d="M62.452 59.781s-6.604 6.654-20.034 11.366-22.742 3.641-22.742 3.641 2.234 14.369 9.394 22.606l17.53-6.15s-.687-4.563 1.005-5.314c1.79-.47 4.105 3.52 4.105 3.52l17.671-5.748c.443-10.904-6.93-23.92-6.93-23.92"/>
                <path fill="#303030" d="M42.291 74.289a1.834 1.834 0 1 0-3.461 1.213 1.834 1.834 0 0 0 3.461-1.213M47.942 72.306a1.834 1.834 0 1 0-3.46 1.215 1.834 1.834 0 0 0 3.46-1.215"/>
                <path stroke="#FFF" stroke-linecap="round" stroke-linejoin="round" stroke-width="1.52" d="M40.56 74.896s5.857 1.1 9.553 5.7M46.211 72.913s-4.27 3.648-3.878 10.337"/>
                <g transform="translate(11.152 5.374)">
                    <mask id="j" fill="#fff">
                        <use xlink:href="#i"/>
                    </mask>
                    <path fill="#FFEB88" d="M22.944 6.794c.562 1.602-3.751 5.353-9.937 7.523-6.185 2.17-11.896 1.937-12.459.335-.116-.33-.013-.721.275-1.153H.82s.94-1.461 1.604-2.826c.173-.356.328-.702.442-1.018.164-.454.126-1.083 0-1.718-.25-1.26-.814-4.376 5.58-6.62 6.33-2.22 7.902.54 8.493 1.679l.001.003c.3.575.662 1.09 1.074 1.341.215.133.46.264.723.395 1.38.685 3.186 1.298 3.273 1.33.492.16.82.4.935.73" mask="url(#j)"/>
                </g>
                <path fill="#F2C351" d="M29.888 10.109s-2.456 2.603-7.55 4.39c-5.094 1.787-8.763 1.548-8.763 1.548.173-.356.328-.702.442-1.018.164-.454.127-1.083 0-1.718.102 0 3.381.069 7.43-1.351 4.113-1.443 6.645-3.587 6.645-3.587.299.575.662 1.09 1.073 1.342.215.132.46.263.723.394"/>
                <path fill="#FFF" d="M42.632 16.713l-.911 4.244 2.64 3.445-4.244-.91-3.445 2.64.911-4.245-2.64-3.444 4.244.911z"/>
            </g>
        </g>
        <path fill="#FFF" d="M515.31 67.464a2.881 2.881 0 0 1-2.876-3.124c.758-8.846 8.887-16.962 17.75-17.72a2.857 2.857 0 0 1 3.12 2.622 2.88 2.88 0 0 1-2.627 3.114c-6.132.524-11.974 6.354-12.497 12.476a2.883 2.883 0 0 1-2.87 2.632"/>
        <g transform="translate(615 144.839)">
            <mask id="l" fill="#fff">
                <use xlink:href="#k"/>
            </mask>
            <use fill="#EF9F00" xlink:href="#k"/>
            <g mask="url(#l)">
                <path fill="#303030" d="M77.11 37.066c16.076 6.908 31.492 54.653-10.319 54.653l-2.886-36.314s8.574 4.96 6.687-3.3l6.518-15.039z"/>
                <path fill="#9D7354" d="M59.411 25.466c2.06 7.658 3.32 24.249 3.32 24.249s-5.137 8.041-22.811 8.041c-17.675 0-22.812-8.041-22.812-8.041s1.26-16.59 3.32-24.25c-5.914-3.216-5.516-7.598-3.007-10.362 5.639-6.22 9.91-1.46 13.072.94h.84c3.13 0 4.489-3.612 10.216-4.043-.391 1.301-.715 2.635-.431 3.582 0 0 2.734-1.581 5.052-1.175-.365.652-.39 1.662-.11 2.307 1.3.077 2.28.066 3.29-.67 3.159-2.4 7.43-7.162 13.068-.941 2.51 2.764 2.908 7.146-3.007 10.363"/>
                <path fill="#493426" d="M25.115 18.81a.717.717 0 0 0-.287-1.196c-.75-.243-1.78-.36-2.612.336-1.435 1.203-1.008 2.38-.522 3.064a.714.714 0 0 0 1.082.09l2.339-2.295zM54.924 18.81a.717.717 0 0 1 .287-1.196c.75-.243 1.78-.36 2.612.336 1.435 1.203 1.008 2.38.522 3.064a.714.714 0 0 1-1.082.09l-2.339-2.295z"/>
                <path fill="#EBBF8D" d="M46.665 48.803c0 5.341-3.02 6.152-6.745 6.152s-6.744-.861-6.744-6.152c0-5.872 3.02-10.205 6.744-10.205 3.725 0 6.745 4.333 6.745 10.205"/>
                <path fill="#2F2F2F" d="M49.452 38.598c-3.491 0-5.93-2.143-5.93-5.21 0-1.678.018-2.497.415-2.78.727-.519 3.228-.562 5.515-.562 2.287 0 4.787.043 5.515.562.396.283.414 1.102.414 2.78 0 3.328-.276 5.21-5.93 5.21m-19.062 0c-5.654 0-5.93-1.882-5.93-5.21 0-1.678.018-2.497.415-2.78.727-.519 3.228-.562 5.515-.562 2.287 0 4.787.043 5.515.562.396.283.414 1.102.414 2.78 0 3.067-2.438 5.21-5.93 5.21m30.91-9.229h-4.44a2.842 2.842 0 0 0-.6-.571c-1.163-.83-3.122-.976-6.806-.976-3.685 0-5.643.146-6.806.976-.619.441-.951 1.002-1.132 1.683h-3.187c-.181-.68-.513-1.242-1.132-1.683-1.163-.83-3.122-.976-6.806-.976-3.685 0-5.643.146-6.806.976a2.857 2.857 0 0 0-.6.571h-4.44a.756.756 0 0 0-.756.756v.712c0 .417.338.755.755.755h3.694v1.796c0 2.247.244 4.017 1.432 5.357 1.256 1.416 3.392 2.076 6.72 2.076 4.725 0 8.153-3.126 8.153-7.433v-.684H41.3v.684c0 4.307 3.429 7.433 8.153 7.433 3.329 0 5.464-.66 6.721-2.076 1.188-1.34 1.431-3.11 1.431-5.357v-1.796H61.3a.755.755 0 0 0 .755-.755v-.712a.756.756 0 0 0-.755-.756"/>
                <path fill="#493426" d="M29.157 33.088a.836.836 0 0 0-.308 1.142c.552.959 1.712 1.494 2.956 1.363.92-.097 1.764-.567 2.257-1.257a.836.836 0 1 0-1.362-.972c-.218.307-.618.518-1.07.565-.569.06-1.116-.16-1.332-.533a.837.837 0 0 0-1.141-.308zM50.439 32.981a.836.836 0 0 1 .636 1.25c-.552.958-1.712 1.493-2.956 1.362-.92-.097-1.764-.567-2.256-1.257a.836.836 0 1 1 1.361-.972c.219.307.619.518 1.07.565.569.06 1.116-.16 1.332-.533a.837.837 0 0 1 .813-.415M44.181 43.378c0 .577-1.01 1.48-2.046 2.256a3.698 3.698 0 0 1-4.43 0c-1.036-.776-2.046-1.679-2.046-2.256 0-1.185 1.908-2.145 4.261-2.145 2.354 0 4.261.96 4.261 2.145"/>
                <path fill="#EBBF8D" d="M42.228 43.004c0 .116-.238.248-.562.374a4.825 4.825 0 0 1-3.492 0c-.323-.126-.562-.258-.562-.374 0-.363 1.033-.656 2.308-.656s2.308.293 2.308.656"/>
                <path fill="#493426" d="M39.905 52.037c-3.026 0-3.991-1.888-4.031-1.969a.618.618 0 0 1 1.105-.553c.035.066.718 1.286 2.926 1.286 2.19 0 2.964-1.301 2.972-1.314a.618.618 0 1 1 1.07.616c-.045.08-1.146 1.934-4.042 1.934M35.34 25.18c-.253.52-.88.737-1.399.483l-.221-.107c-1.55-.756-2.86-.79-4.52-.118l-.227.092a1.047 1.047 0 0 1-1.363-.578l-.184-.455a1.046 1.046 0 0 1 .577-1.363l.228-.093c2.32-.94 4.425-.879 6.621.19l.221.109c.52.253.736.88.483 1.4l-.216.44zM43.979 25.017l-.215-.442a1.047 1.047 0 0 1 .482-1.4l.221-.107c2.196-1.07 4.3-1.13 6.621-.19l.228.091c.536.217.795.828.578 1.363l-.185.456a1.046 1.046 0 0 1-1.363.578l-.228-.093c-1.659-.671-2.968-.637-4.519.119l-.22.107a1.046 1.046 0 0 1-1.4-.482"/>
                <g transform="translate(-6 55.24)">
                    <mask id="n" fill="#fff">
                        <use xlink:href="#m"/>
                    </mask>
                    <path fill="#303030" d="M21.935.165C4.108 2.325-15.512 39.982 19.05 36.48L21.935.165z" mask="url(#n)"/>
                </g>
                <path fill="#F1F1F2" d="M62.732 49.714S56.494 56.75 39.92 56.75 17.11 49.714 17.11 49.714c-4.9 21.516-4.06 42.005-4.06 42.005H66.79s.84-20.489-4.06-42.005"/>
                <path fill="#303030" d="M47.804 58.147l-7.36 2.855c-.337.13-.71.13-1.047 0l-7.36-2.855a.96.96 0 0 0-1.308.895v6.387a.96.96 0 0 0 1.308.895l7.36-2.856c.337-.13.71-.13 1.047 0l7.36 2.856a.96.96 0 0 0 1.307-.895v-6.387a.96.96 0 0 0-1.307-.895M41.456 69.735a1.535 1.535 0 1 0-3.07 0 1.535 1.535 0 0 0 3.07 0M41.456 77.658a1.536 1.536 0 1 0-3.071 0 1.536 1.536 0 0 0 3.07 0"/>
                <path fill="#303030" d="M63.905 55.405S55.03 76.516 39.92 83.54c-15.11-7.024-23.985-28.135-23.985-28.135-3.6 14.686-3.47 36.314-3.47 36.314h54.911s.129-21.628-3.47-36.314"/>
                <path fill="#D0D2D3" d="M73.618 72.492c3.238-8.813-1.28-18.583-10.093-21.822-8.813-3.238-18.583 1.28-21.822 10.093"/>
                <path fill="#FFF" d="M48.37 56.58a.79.79 0 0 1-.514-1.393 15.085 15.085 0 0 1 9.923-3.627.79.79 0 0 1 .785.797.785.785 0 0 1-.797.785 13.542 13.542 0 0 0-8.882 3.247.787.787 0 0 1-.514.19"/>
                <path fill="#D0D2D3" d="M63.726 50.119a1.297 1.297 0 1 1 .896-2.436 1.297 1.297 0 1 1-.895 2.435m1.509-4.108a3.079 3.079 0 0 0-3.949 1.83 3.076 3.076 0 1 0 5.777 2.123 3.08 3.08 0 0 0-1.828-3.953"/>
                <path fill="#B0B1B2" d="M73.618 72.492c-.443 1.204-7.946-.446-16.759-3.685-8.812-3.238-15.598-6.84-15.156-8.044.443-1.204 7.946.446 16.759 3.685s15.598 6.84 15.156 8.044"/>
                <path fill="#F1F1F2" d="M68.415 38.462c4.854-4.12 8.943-1.787 11.275.545 2.4 2.4 4.459 6.632.542 11.273-.784.93-1.626 1.856-2.52 2.598-.992.837-2.048 1.45-3.153 1.595a3.774 3.774 0 0 1-1.75-.177c-1.168-.407-1.6-1.6-1.6-1.6s-2.138.052-3.698-1.509c-1.653-1.652-1.283-3.471-1.283-3.471s-1.493-.435-1.852-1.603a4.274 4.274 0 0 1-.146-1.97c.174-1.118.774-2.165 1.592-3.156.737-.888 1.652-1.725 2.593-2.525"/>
                <path fill="#FFF" d="M52.038 59.376l-.562 2.316 1.4 1.93-2.316-.563-1.93 1.4.562-2.317-1.399-1.929 2.316.562z"/>
                <path fill="#D0D2D3" d="M66.725 81.584c0 1.696-10.067 3.071-22.486 3.071s-22.486-1.375-22.486-3.071c0-1.697 10.067-3.072 22.486-3.072s22.486 1.375 22.486 3.072"/>
                <path fill="#B0B1B2" d="M60.48 81.296c0 .773-7.272 1.4-16.241 1.4-8.97 0-16.24-.627-16.24-1.4 0-.773 7.27-1.4 16.24-1.4 8.969 0 16.24.627 16.24 1.4"/>
                <path fill="#44DB5E" d="M32.39 81.04h9.9v-8.155h-9.9z"/>
                <path fill="#00AA18" d="M42.29 81.04h-9.9v-1.168h9.9v-1.15h-9.9v-1.167h9.9v-1.168h-9.9V75.22h9.9v-1.167h-9.9v-1.167h16.79V68.21H59.3v4.676H55.31v8.153h-13.02z"/>
                <path fill="#44DB5E" d="M38.23 72.886h10.95V68.21H38.23zM58.397 69.63h-6.95M32.39 75.22h9.9v-1.167h-9.9zM32.39 77.555h9.9v-1.167h-9.9zM32.39 79.88h9.9v-1.167h-9.9z"/>
                <path fill="#FFF" d="M66.032 77.955l.976 2.652 2.653.977-2.653.976-.976 2.653-.976-2.653-2.653-.976 2.653-.977z"/>
                <path fill="#EF9F00" d="M51.99 81.534c0 .3-1.167.544-2.606.544-1.439 0-2.605-.244-2.605-.544 0-.3 1.166-.544 2.605-.544 1.44 0 2.606.244 2.606.544"/>
                <path fill="#EF9F00" d="M46.779 81.534h5.21v-.99h-5.21z"/>
                <path fill="#EF9F00" d="M46.779 80.735h5.21v-5.138h-5.21z"/>
                <path fill="#FFD215" d="M51.99 75.598c0 .3-1.167.544-2.606.544-1.439 0-2.605-.244-2.605-.544 0-.3 1.166-.544 2.605-.544 1.44 0 2.606.243 2.606.544"/>
                <path fill="#EF9F00" d="M57.917 81.534c0 .3-1.167.544-2.606.544-1.44 0-2.606-.244-2.606-.544 0-.3 1.167-.544 2.606-.544 1.439 0 2.606.244 2.606.544"/>
                <path fill="#EF9F00" d="M52.705 81.534h5.211v-.99h-5.21z"/>
                <path fill="#FFD215" d="M57.917 80.545c0 .3-1.167.544-2.606.544-1.44 0-2.606-.244-2.606-.544 0-.3 1.167-.544 2.606-.544 1.439 0 2.606.243 2.606.544"/>
                <path fill="#FFF" d="M47.96 81.337a.46.46 0 0 1-.462-.46v-3.67a.46.46 0 0 1 .922 0v3.67a.46.46 0 0 1-.46.46M51.99 73.024l.692 1.88 1.881.694-1.88.692-.693 1.881-.692-1.881-1.881-.692 1.88-.693z"/>
                <path fill="#F1F1F2" d="M14.01 90.782c-5.277-3.562-4.135-8.129-2.519-11.004 1.663-2.959 5.182-6.083 10.708-3.565 1.108.504 2.226 1.065 3.182 1.725 1.074.73 1.948 1.581 2.387 2.606.227.529.34 1.103.302 1.734-.076 1.233-1.109 1.972-1.109 1.972s.628 2.043-.454 3.968c-1.145 2.037-2.996 2.172-2.996 2.172s-.016 1.555-1.043 2.216a4.284 4.284 0 0 1-1.858.672c-1.123.134-2.294-.16-3.468-.68-1.055-.471-2.107-1.126-3.131-1.816"/>
            </g>
        </g>
        <path fill="#FFF" d="M623.19 171.084a2.881 2.881 0 0 1-2.876-3.124c.76-8.847 8.89-16.962 17.75-17.719a2.861 2.861 0 0 1 3.12 2.622 2.881 2.881 0 0 1-2.627 3.114c-6.132.522-11.972 6.353-12.497 12.475a2.883 2.883 0 0 1-2.87 2.632"/>
        <g>
            <g transform="translate(615 41.839)">
                <mask id="p" fill="#fff">
                    <use xlink:href="#o"/>
                </mask>
                <use fill="#F44074" xlink:href="#o"/>
                <g mask="url(#p)">
                    <path fill="#FFF" d="M96.164 53.864a14.31 14.31 0 0 1-.09.46v.006c-.075.37-.155.728-.24 1.08-3.579 14.97-15.5 19.653-22.903 21.114l-.062.01c-.75.149-1.455.262-2.097.354-.608.079-1.165.142-1.654.181-1.448.13-2.312.12-2.312.12-.574-.427-.937-1.285-1.136-2.427-.972-5.443 1.676-17.192 1.676-17.192.437 1.18 1.955 1.863 3.795 1.783 1.721-.074 3.716-.801 5.392-2.386.341-.32.67-.682.978-1.075.601-.766 1.25-1.993 1.67-3.045.512-1.267 16.983 1.017 16.983 1.017"/>
                    <g transform="translate(15.182 8.237)">
                        <mask id="r" fill="#fff">
                            <use xlink:href="#q"/>
                        </mask>
                        <path fill="#9D7354" d="M50.665 3.826C44.607-2.858 40.016 2.257 36.62 4.837c-1.085.791-2.135.803-3.536.72-.3-.694-.273-1.777.12-2.478-2.492-.435-5.43 1.263-5.43 1.263-.302-1.018.044-2.45.463-3.85-6.153.463-7.614 4.345-10.975 4.345h-.906C12.96 2.257 8.367-2.858 2.308 3.826c-2.695 2.972-3.124 7.68 3.234 11.139-2.214 8.23-3.569 26.056-3.569 26.056s5.52 8.644 24.514 8.644C45.48 49.665 51 41.021 51 41.021s-1.354-17.826-3.567-26.056c6.355-3.459 5.928-8.168 3.231-11.14" mask="url(#r)"/>
                    </g>
                    <path fill="#493426" d="M25.758 16.047a.771.771 0 0 0-.307-1.285c-.807-.26-1.914-.388-2.807.361-1.543 1.292-1.084 2.556-.562 3.293a.768.768 0 0 0 1.163.097l2.513-2.466zM57.792 16.047a.771.771 0 0 1 .308-1.285c.807-.26 1.913-.388 2.807.361 1.543 1.292 1.084 2.556.562 3.293a.768.768 0 0 1-1.163.097l-2.514-2.466z"/>
                    <path fill="#EBBF8D" d="M48.917 48.277c0 5.741-3.245 6.613-7.248 6.613s-7.248-.926-7.248-6.613c0-6.309 3.245-10.965 7.248-10.965s7.248 4.656 7.248 10.965"/>
                    <g transform="translate(-3 57.1)">
                        <mask id="t" fill="#fff">
                            <use xlink:href="#s"/>
                        </mask>
                        <path fill="#FFF" d="M19.651.222S9.788-1.12 2.836 7.922c-4.64 6.036-5.303 20.923 11.485 20.399l.854-13.146L19.65.222z" mask="url(#t)"/>
                    </g>
                    <g transform="translate(11.205 53.123)">
                        <mask id="v" fill="#fff">
                            <use xlink:href="#u"/>
                        </mask>
                        <path fill="#FFF" d="M60.919 36.874a91.851 91.851 0 0 0-.364-5.646 112.468 112.468 0 0 0-.337-3.122c-.016-.146-.036-.285-.051-.423-.305-2.396-.579-3.92-.579-3.92l-.012-.223c-.388-6.844-2.21-15.254-3.334-19.932a135.624 135.624 0 0 0-.907-3.572s-7.731 7.897-24.85 7.897l-.001.009v-.01C22.86 7.942 15.169 5.807 9.367 2.58A23.721 23.721 0 0 1 5.632.036S5.185 1.68 4.575 4.25A170.203 170.203 0 0 0 3.8 7.66c-1.006 4.669-2.115 10.72-2.408 15.88a21.4 21.4 0 0 1-.012.222s-.273 1.525-.578 3.92c-.016.14-.035.279-.051.425-.116.934-.23 1.987-.337 3.12a91.852 91.852 0 0 0-.364 5.648s-.42 9.148 3.909 9.148H57.01c4.329 0 3.909-9.149 3.909-9.149" mask="url(#v)"/>
                    </g>
                    <path fill="#303030" d="M72.124 89.997H11.195a92.32 92.32 0 0 1 .364-5.646c.107-1.134.222-2.187.337-3.122.016-.146.035-.285.051-.423h59.424l.052.423c.115.935.23 1.988.336 3.122.163 1.73.301 3.654.365 5.646"/>
                    <path fill="#D0D2D3" d="M96.073 54.324v.006c-.074.37-.154.727-.238 1.08-3.58 14.971-15.5 19.653-22.903 21.113l-.063.012c-.75.148-1.454.262-2.097.352l.517-5.62c13.727.603 19.75-14.198 19.75-14.198l5.034-2.745z"/>
                    <g transform="translate(41.318 89.487)">
                        <mask id="x" fill="#fff">
                            <use xlink:href="#w"/>
                        </mask>
                        <path fill="#303030" d="M26.897 9.66H.37V.51h30.434s.42 9.15-3.908 9.15" mask="url(#x)"/>
                    </g>
                    <g transform="translate(10.636 89.487)">
                        <mask id="z" fill="#fff">
                            <use xlink:href="#y"/>
                        </mask>
                        <path fill="#303030" d="M31.005.51v9.15H4.48C.151 9.66.57.51.57.51h30.435z" mask="url(#z)"/>
                    </g>
                    <path fill="#D0D2D3" d="M69.15 55.944s-5.585 6.63-20.513 8.281a4.907 4.907 0 0 0-.286-3.582c12.73-1.618 18.188-7.484 18.188-7.484l-.356-3.902s-5.96 7.915-22.235 8.599l-.037-.002v.004a52.99 52.99 0 0 1-2.222.05c-17.994 0-24.494-8.65-24.494-8.65l-.356 3.901s7.334 7.897 24.85 7.897c.762 0 1.498-.02 2.222-.049v.015c.976 0 1.77.795 1.77 1.772 0 .922-.71 1.673-1.612 1.755-.775.026-1.563.046-2.38.046v.427-.426c-14.971 0-22.844-4.764-25.91-7.223-.24 1.006-.502 2.158-.776 3.41 2.766 2.004 10.544 6.524 24.66 6.926v31.437h4.01V67.712c.082-.002.158-.006.238-.009v.03c.239 0 .472-.023.702-.057 17.528-.729 24.938-7.831 24.938-7.831l-.4-3.901z"/>
                    <path fill="#303030" d="M66.54 53.16s4.65 0 8.431 1.243c.708 10.396-4.197 22.482-4.197 22.482s-5.17-12.87-4.235-23.725"/>
                    <path fill="#D0D2D3" d="M61.5 76.885H49.091l1.871-4.807h12.41z"/>
                    <path fill="#303030" d="M16.78 53.16s-4.651 0-8.432 1.243c-.707 10.396 4.198 22.482 4.198 22.482s5.169-12.87 4.234-23.725"/>
                    <path fill="#493426" d="M36.956 22.846c-.27.559-.943.793-1.503.523l-.237-.115c-1.669-.807-3.077-.84-4.857-.113l-.245.1a1.125 1.125 0 0 1-1.466-.617l-.2-.488a1.125 1.125 0 0 1 .616-1.467l.245-.1c2.492-1.017 4.753-.958 7.116.184l.237.115c.56.27.794.943.524 1.502l-.23.476zM46.363 22.8l-.221-.479a1.125 1.125 0 0 1 .548-1.493l.24-.11c2.382-1.102 4.645-1.122 7.118-.062l.243.104c.571.245.836.906.591 1.477l-.208.485a1.125 1.125 0 0 1-1.477.591l-.242-.104c-1.769-.757-3.176-.748-4.859.03l-.24.11a1.125 1.125 0 0 1-1.493-.548M46.248 42.446c0 .62-1.085 1.591-2.199 2.424a3.973 3.973 0 0 1-4.76 0c-1.114-.833-2.199-1.803-2.199-2.424 0-1.273 2.05-2.305 4.578-2.305 2.53 0 4.58 1.032 4.58 2.305"/>
                    <path fill="#EBBF8D" d="M44.15 42.044c0 .125-.257.267-.605.402a5.19 5.19 0 0 1-3.752 0c-.348-.135-.604-.277-.604-.402 0-.39 1.11-.705 2.48-.705 1.37 0 2.48.315 2.48.705"/>
                    <path fill="#493426" d="M36.22 32.375c0 1.28-.73 2.317-1.63 2.317-.899 0-1.628-1.037-1.628-2.317 0-1.28.73-2.316 1.629-2.316.9 0 1.63 1.036 1.63 2.316M53.711 32.375c0 1.28-.73 2.317-1.63 2.317-.9 0-1.629-1.037-1.629-2.317 0-1.28.73-2.316 1.63-2.316.9 0 1.63 1.036 1.63 2.316"/>
                    <path fill="#303030" d="M51.91 37.31c-3.75 0-6.372-2.3-6.372-5.6 0-1.801.02-2.68.447-2.985.78-.56 3.47-.606 5.925-.606 2.46 0 5.145.047 5.929.606.424.304.444 1.184.444 2.986 0 3.575-.298 5.6-6.373 5.6m-20.487 0c-5.183 0-6.156-1.475-6.33-4.13-.03-.455-.038-.946-.038-1.47 0-1.802.017-2.682.445-2.986.78-.56 3.468-.606 5.923-.606 2.46 0 5.145.047 5.93.606.152.109.251.295.317.567.118.488.126 1.261.126 2.419 0 3.298-2.618 5.6-6.373 5.6m33.22-9.917H59.87a2.906 2.906 0 0 0-.646-.614c-1.252-.895-3.354-1.05-7.315-1.05-3.96 0-6.063.155-7.314 1.05-.662.472-1.022 1.077-1.216 1.806h-3.426c-.194-.729-.55-1.334-1.216-1.806-1.248-.895-3.354-1.05-7.315-1.05-3.956 0-6.063.155-7.31 1.05a2.903 2.903 0 0 0-.646.614h-4.771a.81.81 0 0 0-.813.812v.764c0 .447.365.812.813.812h3.967v1.929c0 2.416.262 4.316 1.541 5.758 1.35 1.52 3.643 2.23 7.22 2.23 5.077 0 8.764-3.359 8.764-7.988v-.733h2.962v.733c0 4.63 3.683 7.987 8.76 7.987 3.58 0 5.873-.708 7.224-2.23 1.275-1.44 1.536-3.341 1.536-5.757v-1.93h3.972a.813.813 0 0 0 .812-.811v-.764a.81.81 0 0 0-.812-.812"/>
                    <path fill="#493426" d="M41.67 51.757c-3.778 0-4.43-3.2-4.43-3.2 0-.394.32-.713.713-.713h7.432c.393 0 .712.32.712.713 0 0-.7 3.2-4.428 3.2"/>
                    <path fill="#FFCC83" d="M21.958 74.24a4.022 4.022 0 1 1 0-8.045 4.022 4.022 0 0 1 0 8.045m0-14.64c-5.865 0-10.619 4.754-10.619 10.618 0 5.863 4.754 10.617 10.62 10.617 5.862 0 10.617-4.754 10.617-10.617 0-5.864-4.755-10.618-10.618-10.618"/>
                    <path fill="#F44074" d="M21.958 58.676c-6.374 0-11.541 5.167-11.541 11.541h-.001v2.125a1.284 1.284 0 1 0 2.568 0v-.002a1.284 1.284 0 1 1 2.568.002v1.414a1.284 1.284 0 1 0 2.568 0v-3.538a3.838 3.838 0 1 1 7.676 0v4.115a1.284 1.284 0 0 0 2.568 0v-2.015a1.283 1.283 0 0 1 2.567.024v.123l-.001.007a1.284 1.284 0 0 0 2.569 0v-2.254c0-6.374-5.169-11.542-11.54-11.542"/>
                    <path fill="#FFF" d="M14.789 65.684a.865.865 0 0 1-.69-1.387 9.768 9.768 0 0 1 7.858-3.918.866.866 0 1 1 0 1.73 8.05 8.05 0 0 0-6.477 3.23.865.865 0 0 1-.691.345"/>
                    <path fill="#9D7354" d="M11.321 85.421c-6.523-.383-7.903-5.01-7.98-8.393-.08-3.482 1.39-8.084 7.587-8.752 3.34-.36 6.976-.399 8.355 2.284.58 1.125.053 2.321.053 2.321s1.623 1.474 1.675 3.74c.055 2.397-1.509 3.486-1.509 3.486s.8 1.377.238 2.502c-1.421 2.845-4.952 3.016-8.419 2.812"/>
                    <g transform="translate(78.818 47.441)">
                        <mask id="B" fill="#fff">
                            <use xlink:href="#A"/>
                        </mask>
                        <path fill="#303030" d="M.505.552C.21 3.325-2.177 11.11 8.424 11.469c9.434.319 10.085-6.724 9.179-11.15L.505.551z" mask="url(#B)"/>
                    </g>
                    <path fill="#9D7354" d="M83.605 39.4s.478-5.172-3.644-4.675c-6.155.742-.638 13.268-.638 13.268l4.282-8.593z"/>
                    <path fill="#9D7354" d="M96.463 46.935c-.13 6.542-4.708 8.103-8.09 8.311-3.48.215-8.142-1.08-9.05-7.253-.49-3.328-.67-6.965 1.961-8.45 1.105-.622 2.32-.143 2.32-.143s1.413-1.68 3.68-1.82c2.396-.148 3.545 1.375 3.545 1.375s1.348-.853 2.495-.335c2.901 1.312 3.209 4.838 3.14 8.315"/>
                    <path fill="#493426" d="M89.505 41.286c.076 1.238-.75 2.296-1.847 2.364-1.097.067-2.048-.881-2.124-2.119-.077-1.237.75-2.296 1.847-2.364 1.096-.068 2.048.881 2.124 2.12M90.953 41.767c-.227 1.01.315 1.993 1.21 2.194.894.202 1.805-.454 2.032-1.465.227-1.01-.314-1.992-1.21-2.194-.895-.201-1.805.455-2.032 1.465M93.625 47.407c.096 1.559-2.384 2.982-5.54 3.177-3.155.195-5.79-.912-5.887-2.472-.096-1.56 2.383-2.982 5.539-3.177 3.155-.194 5.792.912 5.888 2.472M84.156 42.187c.35.975-.067 2.016-.93 2.326-.865.31-1.848-.23-2.198-1.204-.35-.975.066-2.016.93-2.326.864-.31 1.848.229 2.198 1.204"/>
                </g>
            </g>
            <path fill="#FFF" d="M623.19 67.464a2.881 2.881 0 0 1-2.876-3.124c.76-8.846 8.889-16.962 17.75-17.72a2.862 2.862 0 0 1 3.12 2.622 2.88 2.88 0 0 1-2.627 3.114c-6.132.524-11.972 6.354-12.497 12.476a2.883 2.883 0 0 1-2.87 2.632"/>
        </g>
        <g>
            <g transform="translate(507 144.839)">
                <mask id="D" fill="#fff">
                    <use xlink:href="#C"/>
                </mask>
                <use fill="#E2E28C" xlink:href="#C"/>
                <g mask="url(#D)">
                    <g transform="translate(5 5)">
                        <mask id="F" fill="#fff">
                            <use xlink:href="#E"/>
                        </mask>
                        <path fill="#71723F" d="M19.092 49.953S1.471 52.623 1.471 83.046h16.062l1.56-33.093z" mask="url(#F)"/>
                        <g mask="url(#F)">
                            <g transform="translate(1.226 49.743)">
                                <mask id="H" fill="#fff">
                                    <use xlink:href="#G"/>
                                </mask>
                                <g mask="url(#H)">
                                    <path fill="#494828" d="M9.332 15.248c-.346-.343-.824-.417-1.159-.374l-.033.004c-.215.036-.574.005-.91-.051-.736-1.043-1.972-1.674-3.331-1.674-2.208 0-4.004 1.683-4.004 3.753 0 .678.196 1.336.557 1.908-.375.223-.734.387-.927.387-.112-.012-.412-.237-.592-.372-.537-.402-1.435-1.076-2.52-.576-1.197.55-1.545 2.688-1.18 4.353.612 2.799 2.965 4.47 6.293 4.47 2.618 0 4.542-.676 5.722-2.009 1.278-1.443 1.178-3.141 1.153-3.414-.019-.24-.168-1.571-1.252-2.557.097-.127.186-.26.266-.398 1.309-.236 2.13-1.046 2.285-2.282.077-.62-.197-.998-.368-1.168"/>
                                    <path fill="#FF5224" d="M6.594 15.68s1.036.26 1.704.149c0 0 .513-.067.446.468-.067.534-.342 1.51-2.187 1.512-1.845.002.037-2.128.037-2.128"/>
                                    <path fill="#FFD41D" d="M6.94 16.906c0 1.541-1.362 2.79-3.041 2.79-1.68 0-3.04-1.249-3.04-2.79 0-1.54 1.36-2.79 3.04-2.79s3.04 1.25 3.04 2.79"/>
                                    <path fill="#FFD41D" d="M1.878 18.99S.454 20.165-.478 20.165c-.953 0-1.708-1.495-2.707-1.036-1.236.568-1.737 6.984 4.712 6.984 6.448 0 5.914-4.377 5.914-4.377s-.134-2.744-3.409-2.744H1.878z"/>
                                    <path fill="#FF5224" d="M.777 21.18c-.934-.07-1.037-.583-1.419-.328-.542.362-.809 2.96 2.284 2.96 3.092 0 2.836-2.099 2.836-2.099s-.045-.914-.968-1.218a1.624 1.624 0 0 0-.993.006c-.52.163-.767.75-1.74.678"/>
                                    <path fill="#493426" d="M5.547 16.745a.58.58 0 1 0-1.158 0 .58.58 0 0 0 1.158 0"/>
                                </g>
                            </g>
                        </g>
                        <path fill="#303030" d="M60.69 21.944H18.877L16.505 34.87h46.558z" mask="url(#F)"/>
                        <path fill="#494828" d="M57.15 77.355h-34.5a8.616 8.616 0 0 1-8.617-8.616V49.603c.71-6.43 3.858-9.496 8.616-9.496h34.5c4.758 0 8.318 3.198 8.616 9.496v19.136a8.616 8.616 0 0 1-8.616 8.616" mask="url(#F)"/>
                        <path fill="#71723F" d="M60.707 48.63s26.715 5.409 21.954 19.925c-3.73 8.8-15.857 5.536-15.857 5.536l-6.097-19.404V48.63z" mask="url(#F)"/>
                        <path fill="#9D7354" d="M60.233 43.958L39.9 51.129l-20.334-7.171c-.703 11.165-5.302 24.361-1.041 32.475 0 0 3.32 4.868 21.375 4.868 18.054 0 21.376-4.868 21.376-4.868 4.26-8.114-.339-21.31-1.042-32.475" mask="url(#F)"/>
                        <path fill="#9D7354" d="M45.37 14.542c-.249-.577-.226-1.475.1-2.057-2.067-.36-4.504 1.048-4.504 1.048-.251-.844.037-2.033.384-3.193-5.104.384-6.316 3.604-9.104 3.604h-.75c-8.656 1.092-8.97 8.4-8.97 8.4-1.837 6.827-2.96 21.614-2.96 21.614s4.578 7.17 20.333 7.17c15.755 0 20.334-7.17 20.334-7.17s-1.123-14.787-2.96-21.613c0 0-1.86-7.803-11.902-7.803" mask="url(#F)"/>
                        <path fill="#EBBF8D" d="M45.911 43.145c0 4.762-2.691 5.485-6.012 5.485-3.32 0-6.012-.768-6.012-5.485 0-5.233 2.692-9.096 6.012-9.096 3.32 0 6.012 3.863 6.012 9.096" mask="url(#F)"/>
                        <path fill="#493426" d="M30.721 31.39a.746.746 0 0 1-.681-1.048c.4-.9 1.379-1.483 2.493-1.483.825 0 1.617.338 2.118.903a.745.745 0 1 1-1.116.989c-.222-.251-.597-.401-1.002-.401-.509 0-.974.245-1.13.597a.746.746 0 0 1-.682.443M49.177 31.39a.746.746 0 0 1-.682-.443c-.156-.352-.621-.597-1.13-.597-.4 0-.783.153-1.002.4a.745.745 0 1 1-1.116-.988c.5-.565 1.292-.903 2.117-.903 1.115 0 2.093.582 2.494 1.483a.745.745 0 0 1-.681 1.048M43.698 38.312c0 .515-.9 1.32-1.824 2.01a3.296 3.296 0 0 1-3.95 0c-.923-.69-1.823-1.495-1.823-2.01 0-1.056 1.7-1.912 3.798-1.912s3.799.856 3.799 1.912" mask="url(#F)"/>
                        <path fill="#EBBF8D" d="M41.957 37.978c0 .104-.213.222-.501.334-1 .389-2.114.389-3.113 0-.289-.112-.501-.23-.501-.334 0-.323.92-.584 2.057-.584 1.136 0 2.058.261 2.058.584" mask="url(#F)"/>
                        <path fill="#493426" d="M39.9 46.024c-3.134 0-3.674-2.654-3.674-2.654 0-.327.265-.591.591-.591h6.165c.326 0 .59.264.59.591 0 0-.58 2.654-3.672 2.654" mask="url(#F)"/>
                        <g fill="#493426" mask="url(#F)">
                            <path d="M35.817 22.124a.933.933 0 0 1-1.248.43l-.197-.095c-1.382-.674-2.55-.704-4.028-.106l-.203.083a.933.933 0 0 1-1.215-.515l-.164-.406a.933.933 0 0 1 .514-1.215l.203-.083c2.07-.837 3.945-.783 5.903.17l.197.096a.934.934 0 0 1 .43 1.248l-.192.393zM44.081 22.124l-.192-.393a.933.933 0 0 1 .43-1.248l.197-.096c1.958-.953 3.833-1.007 5.903-.17l.202.083a.933.933 0 0 1 .516 1.215l-.165.406a.933.933 0 0 1-1.215.515l-.203-.083c-1.48-.598-2.646-.568-4.029.106l-.197.096a.933.933 0 0 1-1.247-.43"/>
                        </g>
                        <path fill="#71723F" d="M65.933 75.568c-.69 4.6-10.246 8.124-24.372 8.38-.548.01-1.1.017-1.662.017-.562 0-1.113-.007-1.662-.017-14.125-.256-23.682-3.78-24.372-8.38-.341-2.256 1.321-3.019 1.321-3.019-.036-3.597.28-7.056.733-10.124 1.018-6.882 3.173-13.794 3.173-13.794s6.396 5.345 20.807 5.371c14.412-.026 20.807-5.37 20.807-5.37s2.155 6.911 3.174 13.793c.453 3.068.768 6.527.732 10.124 0 0 1.662.763 1.32 3.02" mask="url(#F)"/>
                        <path fill="#494828" d="M14.033 49.603s-2.737 20.058-.228 34.834h52.174c2.51-14.776-.214-34.834-.214-34.834-.33-1.376-1.17-2.164-2.521-2.365-1.176-.085-2.022.38-2.538 1.393-.864 3.157-10.835 11.917-20.807 11.917-9.971 0-19.943-8.76-20.807-11.917l-5.059.972z" mask="url(#F)"/>
                        <g fill="#939357" mask="url(#F)">
                            <path d="M23.807 68.22c-.463.202-1.032.23-1.698.078-.746-.171-1.39-.564-1.919-1.172.364-.342.724-.687 1.08-1.034.177.228.398.424.662.585.262.162.473.26.627.295.263.06.411.018.442-.122.01-.044-.004-.09-.039-.135a.528.528 0 0 0-.11-.108 1.75 1.75 0 0 0-.178-.106 11.499 11.499 0 0 1-.713-.41c-.312-.212-.523-.394-.637-.545-.255-.34-.323-.734-.209-1.181.124-.487.425-.838.897-1.059.426-.202.957-.227 1.6-.083.335.075.653.202.958.38.305.18.552.382.738.611a89.74 89.74 0 0 1-.883 1.037 2.146 2.146 0 0 0-.559-.488 1.942 1.942 0 0 0-.572-.26c-.28-.063-.436-.028-.467.108a.12.12 0 0 0 .029.114l.044.048a.47.47 0 0 0 .058.047.519.519 0 0 0 .057.04l.067.038a18.449 18.449 0 0 0 .304.164c.153.082.263.143.328.183.361.21.623.412.784.607.274.34.369.738.278 1.196-.107.536-.427.929-.969 1.171M29.398 69.535a82.07 82.07 0 0 1-3.97-.64l.941-5.052a76.76 76.76 0 0 0 3.647.589l-.18 1.313c-.67-.091-1.34-.192-2.01-.302l-.09.552c.636.104 1.272.2 1.91.288l-.181 1.306a79.857 79.857 0 0 1-1.941-.293l-.096.588c.716.117 1.433.224 2.151.322l-.18 1.329M35.163 69.553c-.49.4-1.162.57-2.004.495-.854-.076-1.538-.385-2.038-.916-.501-.53-.692-1.21-.588-2.033.104-.822.453-1.432 1.034-1.837.582-.405 1.265-.568 2.064-.496.214.019.42.053.617.101a2.811 2.811 0 0 1 1.016.46l.057.056c-.182.46-.368.92-.555 1.38a2.248 2.248 0 0 0-.16-.138 2.45 2.45 0 0 0-.402-.23 1.662 1.662 0 0 0-.589-.172c-.346-.031-.641.042-.891.22-.249.177-.395.455-.434.835-.039.37.051.667.271.889.22.221.505.347.85.378.535.047.98-.076 1.33-.365.138.458.279.916.422 1.373M40.942 68.086c.005.745-.189 1.305-.587 1.677-.43.401-1.077.6-1.927.578-.852-.021-1.486-.25-1.896-.673-.38-.391-.546-.96-.504-1.704l.164-2.938c.568.032 1.136.057 1.705.076l-.101 3.015c-.009.258.045.447.162.564a.71.71 0 0 0 .506.201.709.709 0 0 0 .516-.175c.117-.107.178-.292.182-.556l.05-3.016c.57.01 1.142.012 1.713.009l.017 2.942zM44.65 66.397c-.086-.06-.214-.085-.387-.077l-.436.02.039.892c.147-.006.293-.012.44-.02.18-.008.308-.045.381-.108a.414.414 0 0 0 .173-.368.4.4 0 0 0-.21-.34m2.546 3.613c-.693.057-1.387.106-2.08.145a97.72 97.72 0 0 1-.96-1.667l-.228.01.074 1.712c-.603.026-1.207.045-1.812.058l-.107-5.139a75.64 75.64 0 0 0 2.253-.08c.647-.032 1.153.06 1.528.282.448.267.696.67.74 1.215.054.688-.202 1.227-.779 1.61.448.622.904 1.24 1.371 1.854M49.76 69.759c-.602.068-1.204.13-1.806.185l-.468-5.119c.565-.051 1.13-.109 1.692-.173l.581 5.107M54.211 65.242c-.41.073-.821.143-1.233.21l.612 3.78c-.598.096-1.197.186-1.797.27l-.527-3.793c-.41.057-.82.11-1.23.161l-.16-1.3a77.33 77.33 0 0 0 4.105-.618l.23 1.29M59.629 62.725c-.328 1.161-.68 2.321-1.059 3.48l.454 1.958c-.592.138-1.185.268-1.78.392l-.41-1.969a87.008 87.008 0 0 1-2.41-2.715 78.117 78.117 0 0 0 1.853-.364c.37.513.745 1.024 1.126 1.533.135-.622.264-1.244.387-1.866a76.81 76.81 0 0 0 1.839-.449"/>
                        </g>
                        <path fill="#303030" d="M48.394 34.042c-3.11 0-5.285-1.908-5.285-4.644 0-1.495.016-2.224.371-2.477.647-.463 2.877-.503 4.914-.503 2.04 0 4.267.04 4.918.503.351.253.368.982.368 2.477 0 2.966-.247 4.644-5.286 4.644m-16.993 0c-4.3 0-5.107-1.222-5.252-3.424-.025-.378-.03-.785-.03-1.22 0-1.495.013-2.224.368-2.477.647-.463 2.877-.503 4.914-.503 2.04 0 4.267.04 4.918.503.126.09.208.245.263.47.098.406.105 1.047.105 2.007 0 2.736-2.172 4.644-5.286 4.644m27.554-8.225h-3.958a2.403 2.403 0 0 0-.535-.51c-1.038-.742-2.783-.87-6.068-.87-3.285 0-5.029.128-6.067.87-.549.391-.848.894-1.009 1.499h-2.841c-.161-.605-.457-1.108-1.009-1.498-1.034-.743-2.782-.87-6.067-.87-3.282 0-5.03.127-6.064.87-.217.15-.39.322-.536.509h-3.958c-.371 0-.673.299-.673.673v.634c0 .372.302.674.673.674h3.292v1.6c0 2.004.216 3.58 1.277 4.776 1.12 1.261 3.023 1.85 5.989 1.85 4.212 0 7.27-2.786 7.27-6.626v-.608h2.457v.608c0 3.84 3.055 6.625 7.266 6.625 2.97 0 4.872-.588 5.992-1.85 1.058-1.195 1.275-2.771 1.275-4.775v-1.6h3.294a.674.674 0 0 0 .674-.674v-.634a.673.673 0 0 0-.674-.673" mask="url(#F)"/>
                        <path fill="#303030" d="M36.687 29.398a42.8 42.8 0 0 0-.008-.96L24.99 31.766c.417 1.444 2.967 2.276 6.411 2.276 3.114 0 5.286-1.908 5.286-4.644z" mask="url(#F)"/>
                        <path fill="#D6D6D6" d="M36.319 26.92c-.65-.463-2.878-.502-4.918-.502-2.037 0-4.267.04-4.914.503-.355.253-.368.982-.368 2.476 0 .436.005.843.03 1.221.029.438.085.837.188 1.196l10.342-3.376c-.01-.453-.036-.795-.097-1.047-.055-.225-.136-.38-.263-.47M53.378 26.988c-.021-.023-.041-.05-.066-.067-.65-.463-2.878-.503-4.918-.503-2.036 0-4.267.04-4.914.503-.355.252-.371.982-.371 2.476 0 .258.025.506.062.747.09.581.285 1.116.57 1.59l9.932-3.243c-.018-.81-.08-1.278-.295-1.503" mask="url(#F)"/>
                        <path fill="#303030" d="M43.742 31.733c.859 1.426 2.537 2.31 4.652 2.31 5.04 0 5.286-1.679 5.286-4.646 0-.34-.002-.641-.007-.905l-9.931 3.241z" mask="url(#F)"/>
                        <g mask="url(#F)">
                            <path fill="#303030" d="M37.906 51.008c-5.216 0-9.541-1.728-12.856-5.136-3.088-3.175-5.298-7.902-6.39-13.67-.816-4.308-.733-7.658-.73-7.8l2.452.07c-.004.168-.25 12.834 6.432 19.696 2.835 2.911 6.567 4.387 11.092 4.387v2.453zM41.892 51.008v-2.453c4.529 0 8.263-1.478 11.098-4.393 6.702-6.89 6.43-19.564 6.426-19.69l2.452-.069c.004.14.086 3.491-.73 7.8-1.092 5.767-3.302 10.494-6.39 13.669-3.314 3.408-7.64 5.136-12.856 5.136"/>
                            <path fill="#494828" d="M42.801 52.622h-5.804a2.545 2.545 0 0 1-2.545-2.545v-.59a2.545 2.545 0 0 1 2.545-2.546h5.804a2.545 2.545 0 0 1 2.546 2.546v.59a2.545 2.545 0 0 1-2.546 2.545"/>
                            <path fill="#71723F" d="M42.785 2.092h-5.409c-8.15 0-15.072 5.97-16.267 14.033l-1.025 6.912h39.993l-1.024-6.912A16.445 16.445 0 0 0 42.785 2.092"/>
                            <path fill="#939357" d="M64.76 32.627l-.897-6.376c-.542-3.902-3.922-6.844-7.86-6.844H23.519c-3.939 0-7.318 2.942-7.86 6.84l-.897 6.38a1.993 1.993 0 1 0 3.947.555l.898-6.383a3.966 3.966 0 0 1 3.912-3.406H56.003a3.968 3.968 0 0 1 3.913 3.41l.897 6.38a1.993 1.993 0 0 0 3.947-.556"/>
                        </g>
                        <g mask="url(#F)">
                            <path fill="#4D5133" d="M55.993 10.606v1.732a5.991 5.991 0 0 1-5.99 5.99h-2.484a5.382 5.382 0 0 1-5.254-4.221l-.2-.892a1.426 1.426 0 0 0-1.394-1.122h-1.18c-.67 0-1.251.466-1.396 1.122l-.196.892a5.379 5.379 0 0 1-5.257 4.221h-2.484a5.981 5.981 0 0 1-5.99-5.99v-1.732a4.484 4.484 0 0 1 4.482-4.482h22.86a4.484 4.484 0 0 1 4.483 4.482"/>
                            <path fill="#303030" d="M39.49 11.02h1.18c1.185 0 2.19.808 2.443 1.964l.2.889a4.284 4.284 0 0 0 4.206 3.383h2.484a4.923 4.923 0 0 0 4.917-4.918v-1.732c0-1.88-1.53-3.41-3.41-3.41H28.65c-1.88 0-3.409 1.53-3.409 3.41v1.732a4.918 4.918 0 0 0 4.917 4.917h2.484c.231 0 .455-.017.666-.052a4.287 4.287 0 0 0 3.544-3.328l.196-.891a2.516 2.516 0 0 1 2.442-1.964m10.513 8.382h-2.484a6.416 6.416 0 0 1-6.302-5.063l-.199-.89a.354.354 0 0 0-.347-.283h-1.18a.357.357 0 0 0-.347.279l-.197.893a6.417 6.417 0 0 1-5.295 4.983 6.18 6.18 0 0 1-1.01.08h-2.484a7.057 7.057 0 0 1-7.063-7.063v-1.732A5.561 5.561 0 0 1 28.65 5.05h22.86a5.561 5.561 0 0 1 5.556 5.555v1.732a7.071 7.071 0 0 1-7.063 7.064"/>
                            <path fill="#F9FFBB" d="M30.556 16.017a3.836 3.836 0 0 1-3.832-3.832v-1.847a.92.92 0 1 1 1.84 0v1.847c0 1.099.893 1.993 1.992 1.993a.92.92 0 1 1 0 1.839M48.393 16.017a3.836 3.836 0 0 1-3.832-3.832.92.92 0 1 1 1.84 0c0 1.099.894 1.993 1.992 1.993a.92.92 0 1 1 0 1.839"/>
                        </g>
                        <path fill="#303030" d="M22.7 60.447l-2.073-12.968a1.568 1.568 0 0 0-1.795-1.3l-4.679.748-2.516-15.738a.934.934 0 0 0-1.07-.775l-.52.083a.934.934 0 0 0-.774 1.07l2.516 15.738-.083.014a1.567 1.567 0 0 0-1.3 1.795l2.073 12.967c.137.854.94 1.437 1.796 1.3l7.125-1.14a1.568 1.568 0 0 0 1.3-1.794" mask="url(#F)"/>
                        <g mask="url(#F)">
                            <path fill="#3A3920" d="M26.3 88.25h-6.395a3.167 3.167 0 0 1-3.168-3.168v-8.458a3.167 3.167 0 0 1 3.168-3.168h6.394a3.167 3.167 0 0 1 3.168 3.168v8.458a3.167 3.167 0 0 1-3.168 3.168M42.958 88.25h-6.394a3.168 3.168 0 0 1-3.168-3.168v-8.458a3.168 3.168 0 0 1 3.168-3.168h6.394a3.168 3.168 0 0 1 3.168 3.168v8.458a3.168 3.168 0 0 1-3.168 3.168M59.617 88.25h-6.394a3.167 3.167 0 0 1-3.168-3.168v-8.458a3.167 3.167 0 0 1 3.168-3.168h6.394a3.168 3.168 0 0 1 3.168 3.168v8.458a3.168 3.168 0 0 1-3.168 3.168"/>
                            <path fill="#71723F" d="M24.502 78.734a1.4 1.4 0 1 0-2.8 0 1.4 1.4 0 0 0 2.8 0M41.294 78.734a1.4 1.4 0 1 0-2.8 0 1.4 1.4 0 0 0 2.8 0M57.82 78.734a1.4 1.4 0 1 0-2.8 0 1.4 1.4 0 0 0 2.8 0"/>
                        </g>
                        <g mask="url(#F)">
                            <path fill="#303030" d="M67.173 73.206c5.875-.668 6.894-4.917 6.797-7.978-.099-3.15-1.656-7.235-7.287-7.534-3.035-.16-6.323-.015-7.437 2.476-.468 1.046.066 2.1.066 2.1s-1.393 1.412-1.328 3.462c.068 2.17 1.534 3.075 1.534 3.075s-.653 1.285-.09 2.273c1.424 2.5 4.622 2.48 7.745 2.126"/>
                            <path fill="#303030" d="M71.663 59.58c-1.212-2.092-.704-6.728-3.528-6.406-3.7.42-1.316 6.042-1.316 6.042s5.404 1.329 4.844.364"/>
                            <path fill="#9D7354" d="M69.252 70.423c.764.28 1.663-.265 1.892-1.241.51-2.159.617-4.393.318-6.59-.135-.994-.977-1.623-1.764-1.418-.79.204-1.265 1.012-1.158 1.816.25 1.839.16 3.708-.266 5.514-.184.79.212 1.64.978 1.92"/>
                        </g>
                    </g>
                </g>
            </g>
            <path fill="#FFF" d="M515.31 171.084a2.881 2.881 0 0 1-2.876-3.124c.758-8.847 8.887-16.962 17.75-17.719 1.615-.151 2.984 1.039 3.12 2.622a2.881 2.881 0 0 1-2.627 3.114c-6.134.522-11.974 6.352-12.497 12.475a2.883 2.883 0 0 1-2.87 2.632"/>
        </g>
        <g transform="translate(-13 -6)">
            <mask id="J" fill="#fff">
                <use xlink:href="#I"/>
            </mask>
            <g mask="url(#J)">
                <path fill="#523666" d="M395.966 249.858H231.554l-12.365-97.568c-1.767-13.952 9.104-26.29 23.167-26.29h120.197c10.123 0 18.67 7.528 19.947 17.569l13.466 106.289z"/>
                <path fill="#402756" d="M395.966 249.858H264.164L251.8 152.29c-1.766-13.952 9.104-26.29 23.168-26.29h87.586c10.123 0 18.67 7.528 19.947 17.569l13.466 106.289z"/>
                <path fill="#855CAA" d="M317.565 189.984c.67 5.122-6.938 5.416-7.442 1.712-.435-3.203 2.972-3.635 7.351-2.404l.091.692zm2.407-13.14c-2.302-1.534-4.953-2.311-7.879-2.311-3.444 0-5.721.596-7.32 1.117-3.683 1.198-1.59 6.94 2.75 5.902 3.73-.89 8.773-1.39 9.34 2.937l.038.284c-1.261-.346-3.878-.913-6.78-.637-5.07.484-8.002 3.433-7.468 7.514.638 4.877 4.391 8.03 9.559 8.03 3.704 0 5.62-1.59 6.54-2.598.25.487.595.933 1.02 1.31.793.702 1.776 1.088 2.766 1.088h.136c2.048 0 3.495-1.665 3.227-3.712l-1.384-10.568c-.01-.074-.02-.158-.03-.251-.178-1.513-.652-5.532-4.515-8.105zM288.001 193.622h-1.993l-1.703-13.004h1.994c4.295 0 6.88 2.91 7.348 6.503.471 3.59-1.391 6.501-5.646 6.501m-1.007-18.697h-7.001c-2.074 0-3.541 1.688-3.27 3.764l2.208 16.864c.272 2.073 2.181 3.76 4.256 3.76h7.192c3.296 0 6.214-1.293 8.218-3.643 2.003-2.35 2.838-5.46 2.35-8.757-.974-6.61-7.235-11.988-13.953-11.988M340.69 177.023l-2.915 12.658-6.228-12.658c-.737-1.496-2.285-2.49-3.874-2.49-2.752 0-4.204 2.852-2.725 5.349l10.422 17.606c.792 1.337 2.242 2.193 3.715 2.193 1.473 0 2.7-.856 3.142-2.193l5.81-17.606c.826-2.497-1.374-5.35-4.126-5.35-1.59 0-2.877.995-3.221 2.491M359.845 180.419c3.878 0 5.052 3.607 5.18 4.581h-8.88c-.316-2.422 1.419-4.581 3.7-4.581m2.574 13.2c-2.079 0-4.994-1.486-5.655-3.94h12.142c1.1 0 2.13-.406 2.785-1.202.654-.795.896-1.836.684-2.924l-.057-.249c-1.635-6.14-7.282-10.771-13.132-10.771-6.531 0-11.104 5.638-10.196 12.572.908 6.935 6.957 12.577 13.489 12.577 3.788 0 6.427-1.161 8.18-2.432 1.602-1.162 1.284-3.728-.597-4.932-1.144-.73-2.533-.702-3.47.045-1.13.898-2.279 1.257-4.173 1.257"/>
            </g>
            <g mask="url(#J)">
                <g transform="translate(282.843 6.064)">
                    <mask id="L" fill="#fff">
                        <use xlink:href="#K"/>
                    </mask>
                    <path fill="#9D7354" d="M161.692 10.89c-19.45-21.421-34.185-5.028-45.09 3.244-3.484 2.535-6.855 2.57-11.352 2.309-.966-2.228-.877-5.699.386-7.947-8-1.395-17.435 4.05-17.435 4.05-.968-3.264.145-7.857 1.487-12.34-19.75 1.482-24.44 13.928-35.233 13.928h-2.904C40.646 5.862 25.905-10.531 6.456 10.89c-8.65 9.528-10.03 24.618 10.38 35.706-7.106 26.378-11.455 83.52-11.455 83.52s17.72 27.706 78.694 27.706c60.973 0 78.695-27.707 78.695-27.707s-4.346-57.141-11.454-83.519c20.407-11.088 19.032-26.178 10.376-35.706" mask="url(#L)"/>
                </g>
                <path fill="#493426" d="M315.5 29.724c1.333-1.304.788-3.543-.986-4.116-2.591-.836-6.142-1.244-9.013 1.158-4.952 4.142-3.478 8.194-1.8 10.553.873 1.231 2.655 1.37 3.731.312l8.068-7.907zM418.336 29.724c-1.332-1.304-.787-3.543.987-4.116 2.59-.836 6.142-1.244 9.012 1.158 4.952 4.142 3.479 8.194 1.8 10.553-.873 1.231-2.653 1.37-3.73.312l-8.069-7.907z"/>
                <path fill="#EBBF8D" d="M390.186 133.039c0 18.4-10.416 21.193-23.268 21.193-12.85 0-23.268-2.968-23.268-21.193 0-20.225 10.419-35.152 23.268-35.152 12.852 0 23.268 14.927 23.268 35.152"/>
                <path fill="#303030" d="M468.68 246.999c-4.285 9.852-13.197 13.634-36.831 14.598-.242.014-.509.027-.763.027 0 0-.826.062-2.301.164l-.509.04c-.19.01-.368.01-.57.023-2.888.192-7.426.432-12.791.56-.42 0-.825.011-1.246.024-1.653.038-3.318.05-4.971.05h-84.785a321.083 321.083 0 0 1-19.742-.76c-.129 0-.256-.012-.37-.026-.686-.037-1.056-.075-1.056-.075-.152 0-.292-.013-.445-.013h-.036c-23.852-.94-32.802-4.71-37.1-14.612-7.487-17.2 5.735-54.406 18.881-84.034l.444-1.093c-12.548-5.457-5.136-27.47 3.74-25.693 0 0 32.213 26.29 78.693 26.29 46.327 0 78.695-26.29 78.695-26.29 8.861-1.776 16.273 20.236 3.725 25.693l.447 1.093c13.144 29.628 26.366 66.833 18.89 84.034"/>
                <path fill="#493426" d="M352.29 42.672a3.612 3.612 0 0 1-4.356 2.662l-.825-.2c-5.786-1.39-10.222-.532-15.312 2.957l-.7.479a3.614 3.614 0 0 1-5.02-.93l-.96-1.397a3.602 3.602 0 0 1 .932-5.013l.7-.48c7.121-4.882 14.253-6.242 22.446-4.271l.825.198a3.606 3.606 0 0 1 2.666 4.349l-.397 1.646zM381.99 54.54l-.714-1.537a3.603 3.603 0 0 1 1.762-4.785l.77-.356c7.649-3.531 14.91-3.595 22.85-.198l.78.334a3.603 3.603 0 0 1 1.897 4.734l-.667 1.556a3.614 3.614 0 0 1-4.74 1.895l-.78-.334c-5.677-2.428-10.195-2.399-15.597.094l-.768.357a3.615 3.615 0 0 1-4.794-1.76M350.895 81.653c0 4.1-2.343 7.426-5.23 7.426-2.89 0-5.232-3.325-5.232-7.426 0-4.099 2.342-7.424 5.232-7.424 2.887 0 5.23 3.325 5.23 7.424M408.811 84.827h-12.043a3.175 3.175 0 0 1-3.178-3.174 3.175 3.175 0 0 1 3.178-3.173h12.043a3.175 3.175 0 0 1 3.179 3.173 3.175 3.175 0 0 1-3.179 3.174"/>
                <path fill="#303030" d="M399.795 97.982c-12.04 0-20.455-7.376-20.455-17.95 0-5.775.063-8.593 1.436-9.572 2.505-1.789 11.137-1.94 19.02-1.94 7.894 0 16.513.151 19.031 1.94 1.36.979 1.424 3.797 1.424 9.571 0 11.465-.954 17.951-20.456 17.951m-65.766 0c-16.64 0-19.765-4.726-20.324-13.233-.097-1.463-.12-3.034-.12-4.718 0-5.774.051-8.592 1.425-9.571 2.504-1.789 11.136-1.94 19.02-1.94 7.893 0 16.514.151 19.03 1.94.492.352.81.948 1.02 1.822.378 1.565.404 4.041.404 7.75 0 10.574-8.402 17.95-20.455 17.95m106.638-31.786H425.35a9.311 9.311 0 0 0-2.072-1.968c-4.018-2.87-10.768-3.364-23.482-3.364-12.713 0-19.465.494-23.482 3.364-2.124 1.511-3.28 3.453-3.902 5.789h-10.997c-.624-2.336-1.767-4.278-3.904-5.789-4.004-2.87-10.767-3.364-23.48-3.364-12.702 0-19.465.494-23.47 3.364a9.284 9.284 0 0 0-2.072 1.968H293.17a2.6 2.6 0 0 0-2.606 2.602v2.449a2.609 2.609 0 0 0 2.606 2.604h12.737v6.18c0 7.745.84 13.838 4.947 18.458 4.335 4.874 11.695 7.147 23.176 7.147 16.299 0 28.134-10.764 28.134-25.605v-2.347h9.51v2.347c0 14.841 11.824 25.605 28.122 25.605 11.493 0 18.854-2.273 23.188-7.147 4.095-4.62 4.934-10.713 4.934-18.458v-6.18h12.75a2.61 2.61 0 0 0 2.608-2.604v-2.449a2.6 2.6 0 0 0-2.608-2.602"/>
                <g fill="#FFF" opacity=".45">
                    <path d="M334.029 97.982c12.052 0 20.456-7.376 20.456-17.95 0-1.408-.004-2.638-.03-3.709L314.434 89.37c1.612 5.578 6.267 8.613 19.595 8.613M381.79 89.06c3.324 5.507 9.82 8.922 18.005 8.922 19.502 0 20.456-6.487 20.456-17.95 0-1.319-.005-2.479-.028-3.5L381.79 89.058z"/>
                </g>
                <path fill="#493426" d="M381.62 114.352c0 1.987-3.484 5.098-7.06 7.768a12.771 12.771 0 0 1-15.28 0c-3.578-2.67-7.062-5.781-7.062-7.768 0-4.082 6.582-7.392 14.7-7.392 8.12 0 14.701 3.31 14.701 7.392"/>
                <path fill="#EBBF8D" d="M374.881 113.06c0 .4-.82.857-1.938 1.291a16.684 16.684 0 0 1-12.047 0c-1.117-.434-1.94-.89-1.94-1.29 0-1.249 3.564-2.26 7.963-2.26 4.398 0 7.962 1.011 7.962 2.26"/>
                <path fill="#493426" d="M366.867 144.175c-10.439 0-13.77-6.502-13.905-6.78a2.126 2.126 0 0 1 .967-2.85 2.135 2.135 0 0 1 2.844.946c.12.227 2.475 4.427 10.094 4.427 7.553 0 10.226-4.48 10.251-4.526a2.134 2.134 0 0 1 2.911-.782 2.128 2.128 0 0 1 .785 2.907c-.158.271-3.957 6.658-13.947 6.658"/>
                <path fill="#FFF" d="M51.224 46.381c47.157 63.064 356.619 4.236 324.575 93.48-8.065.433-25.29.027-25.29.027 5.464-54.938-207.184 30.781-303.201-3.484-22.469-11.664-33.703-30.093-33.703-55.286 0-27.795 12.54-39.374 37.62-34.737z" opacity=".5"/>
                <path fill="#FFD215" d="M394.118 204.343h-50.481a4.414 4.414 0 0 1-4.417-4.41V136.41a4.413 4.413 0 0 1 4.417-4.408h50.48a4.412 4.412 0 0 1 4.416 4.408v63.523a4.412 4.412 0 0 1-4.415 4.41"/>
                <path fill="#FFD215" d="M339.22 190.459h-5.937c-12.308 0-22.322-9.998-22.322-22.287 0-12.288 10.014-22.287 22.322-22.287h5.938v9.19h-5.938c-7.233 0-13.117 5.875-13.117 13.097 0 7.221 5.884 13.096 13.117 13.096h5.938v9.191z"/>
                <path fill="#303030" d="M398.073 139.65h-58.392c-2.446 0-4.448-1.998-4.448-4.442 0-2.442 2.002-4.441 4.448-4.441h58.392c2.446 0 4.449 1.999 4.449 4.441 0 2.444-2.003 4.442-4.449 4.442"/>
                <path stroke="#FFF" stroke-linecap="round" stroke-linejoin="round" stroke-width="5.516" d="M348.88 187.78v6.126M348.88 149.269v27.22"/>
                <path fill="#9D7354" d="M300.144 145.262c-21.94 1.116-26.7 16.612-27.05 27.964-.361 11.684 4.466 27.17 25.275 29.574 11.218 1.297 23.44 1.52 28.148-7.447 1.977-3.764.24-7.789.24-7.789s5.493-4.906 5.727-12.511c.249-8.047-4.98-11.739-4.98-11.739s2.722-4.605.863-8.394c-4.701-9.584-16.564-10.25-28.223-9.658M395.048 250.24h55.214c-7.843-15.014-21.397-23.081-33.532-23.237-6.398-.083-12.401 1.79-16.966 5.503-9.078 7.426-9.561 17.733-4.716 17.733"/>
            </g>
        </g>
    </g>
</svg>
